<?xml version="1.0" encoding="utf-8"?>
<!-- Generator: Adobe Illustrator 24.2.3, SVG Export Plug-In . SVG Version: 6.00 Build 0)  -->
<svg version="1.1" id="Layer_1" xmlns="http://www.w3.org/2000/svg" xmlns:xlink="http://www.w3.org/1999/xlink" x="0px" y="0px"
	 viewBox="0 0 300 300" style="enable-background:new 0 0 300 300;" xml:space="preserve">
<style type="text/css">
	.st0{clip-path:url(#SVGID_2_);}
	.st1{fill:#B45C71;}
	.st2{fill:#261E35;}
	.st3{fill:#A55551;}
	.st4{fill:#3C3256;}
	.st5{fill:#7D403D;}
	.st6{fill:#C45B5B;}
	.st7{fill:#E2AB6C;}
	.st8{fill:#FFFFFF;}
	.st9{fill:#8F92A1;}
</style>
<g>
	<defs>
		<rect id="SVGID_1_" width="300" height="300"/>
	</defs>
	<clipPath id="SVGID_2_">
		<use xlink:href="#SVGID_1_"  style="overflow:visible;"/>
	</clipPath>
	<g class="st0">
		<path class="st1" d="M68.85,28.65c3.89,6.37,13.24,20.71,15.1,26.71c1.86,6-3.99,5.39-8.54-1.97
			c-4.55-7.36-11.53-16.81-12.62-16.71c-1.1,0.1-3.94,5.21-11.11,7.75s-10.44,1.52-15.88-4.62s-3.58-12.9-6.77-18.2
			c-2.89-4.81-14.3-27.07-14.3-27.07S34.76-19.12,35.75-17.2C49.77,9.92,57.9,4.81,63.24,13.97C68.09,22.28,66.99,25.62,68.85,28.65
			z"/>
		<path class="st2" d="M41.44,44.38c-0.8-2.1-4.55-12.66-0.3-14.85c0.31-0.16,0.83-0.3,1.48-0.05c0.45,0.17,0.93,0.55,1.42,1.08
			c0.09-0.96,0.41-1.77,1.07-2.31c0.57-0.48,1.26-0.65,2.01-0.49c0.52,0.11,1.06,0.39,1.62,0.79c-0.58-1.98-0.78-3.82-0.22-5.17
			c0.34-0.82,1.11-1.87,2.89-2.2c2.93-0.54,7.72,8.42,10.32,13.81l-1.62,0.78c-3.27-6.79-7.19-12.78-8.39-12.82
			c-1.05,0.19-1.38,0.73-1.54,1.11c-0.72,1.76,0.44,5.07,2.04,8.3c2.15,3,3.97,6.52,4.51,7.6l-1.54,0.92
			c-0.45-0.65-2.69-3.89-4.52-7.57c-1.45-2.02-2.89-3.58-3.92-3.79c-0.24-0.05-0.37,0.01-0.49,0.11c-0.69,0.58-0.6,2.11-0.05,4.03
			c2.11,3.63,4.02,8.47,4.54,9.83l-1.61,0.79c-0.8-1.31-3.48-5.89-4.62-9.94c-1.13-1.95-2.09-3.17-2.61-3.2
			c-2.06,1.07-0.55,8.01,1.2,12.6L41.44,44.38z"/>
		<g>
			<path class="st1" d="M58.9,16.94c0,0-8.98,25.35-13.51,19.87c-1.6-1.94,0.62-7.88,0.92-11.59s-8.06,5.91-10.91-2.69"/>
			<path class="st2" d="M46.83,38.48c-0.63,0-1.41-0.24-2.13-1.1c-1.35-1.64-0.68-4.82,0.02-8.2c0.29-1.42,0.58-2.75,0.68-3.88
				c-0.36,0.12-0.89,0.35-1.31,0.53c-1.8,0.79-4.28,1.88-6.48,0.9c-1.37-0.61-2.4-1.93-3.06-3.93l1.71-0.56
				c0.5,1.5,1.2,2.46,2.08,2.85c1.48,0.66,3.45-0.21,5.03-0.9c1.42-0.63,2.44-1.07,3.24-0.5c0.45,0.32,0.65,0.86,0.59,1.6
				c-0.1,1.27-0.42,2.79-0.73,4.26c-0.53,2.55-1.19,5.72-0.39,6.68c0.38,0.46,0.66,0.48,0.9,0.44c3.09-0.55,8.43-12.58,11.07-20.03
				l1.69,0.6c-1.2,3.38-7.43,20.31-12.45,21.2C47.15,38.46,47,38.48,46.83,38.48z"/>
		</g>
	</g>
	<g class="st0">
		<path class="st1" d="M17.29,112.74c2.94,1.14,9.84,21.24,12.46,18.45s-4.2-14.6-0.14-15.65c4.06-1.05,37.31,7.67,33.9,0.08
			c-2.82-6.27-23.83-6.1-23.74-9.52s4.17-12.1,1.8-15.69s-13.66-9.3-19.63-7.12c-5.97,2.18-27.4-6.53-31.25-5.8
			c-3.85,0.73-7.5,23.97-7.63,29.9S8.7,109.43,17.29,112.74z"/>
		<g>
			<path class="st3" d="M36.41,98.75c0,0,3.44,0.66,4.71,1.38"/>
			<path class="st2" d="M40.71,100.86c-0.95-0.54-3.54-1.11-4.45-1.29l0.32-1.64c0.36,0.07,3.61,0.71,4.96,1.48L40.71,100.86z"/>
		</g>
		<g>
			<path class="st3" d="M35.45,104.5c0,0,3.44,0.66,4.71,1.38"/>
			<path class="st2" d="M39.75,106.61c-0.95-0.54-3.54-1.11-4.46-1.29l0.32-1.64c0.36,0.07,3.61,0.71,4.97,1.48L39.75,106.61z"/>
		</g>
		<g>
			<line class="st3" x1="37.29" y1="92.36" x2="42.28" y2="94.24"/>
			
				<rect x="38.95" y="90.64" transform="matrix(0.3529 -0.9356 0.9356 0.3529 -61.5531 97.5964)" class="st2" width="1.67" height="5.33"/>
		</g>
	</g>
	<g class="st0">
		<path class="st1" d="M136.68,9.33c-0.37,3.13-18.15,14.78-14.8,16.64s13.11-7.68,15.13-4.01c2.02,3.68,1.79,38.05,8.3,32.86
			c5.38-4.28,0.02-24.6,3.35-25.35c3.34-0.76,12.75,1.05,15.65-2.14s5.63-15.54,2.05-20.79c-3.59-5.25-0.45-28.16-2.1-31.71
			c-1.65-3.55-25.08-1.35-30.86-0.01S137.77,0.2,136.68,9.33z"/>
		<g>
			<path class="st3" d="M154.96,24.41c0,0,0.21,3.49-0.18,4.91"/>
			<path class="st2" d="M153.98,29.09c0.29-1.05,0.2-3.7,0.15-4.63l1.67-0.1c0.02,0.37,0.21,3.67-0.21,5.18L153.98,29.09z"/>
		</g>
		<g>
			<path class="st3" d="M149.15,24.9c0,0,0.21,3.49-0.18,4.91"/>
			<path class="st2" d="M148.17,29.58c0.29-1.05,0.2-3.7,0.15-4.64l1.67-0.1c0.02,0.37,0.21,3.67-0.2,5.18L148.17,29.58z"/>
		</g>
		<g>
			<line class="st3" x1="161.37" y1="23.68" x2="160.78" y2="28.98"/>
			
				<rect x="158.41" y="25.49" transform="matrix(0.1108 -0.9938 0.9938 0.1108 117.0683 183.4995)" class="st2" width="5.33" height="1.67"/>
		</g>
	</g>
	<g class="st0">
		<path class="st4" d="M118.59,79.62c0,0-4.23-15.75-19.84-16.56S72.38,75.84,74.08,88.1c1.7,12.26,2.27,22.67,10.76,25.9
			s7.47,16.72-2,17.77c-21.05,2.32-29.28,15.41-33.47,36.09s0,132.1,0,132.1h98.2V134.06c0,0-13.34-9.86-22.17-17.97
			S122.73,87.69,118.59,79.62z"/>
		<path class="st4" d="M176.63,56.3c0,0,4.49-17.41,21.08-18.31s28.02,14.13,26.22,27.69s-2.41,25.07-11.44,28.64
			s-7.21,18.57-0.33,21.07c31.87,11.58,33.57,15.61,38.02,38.49s0,146.08,0,146.08H145.82V116.5c0,0,14.18-10.9,23.56-19.87
			C178.77,87.66,172.23,65.22,176.63,56.3z"/>
		<path class="st5" d="M126.58,130.56c0,0-6.76-0.95-9.58-7.79c-2.83-6.84,2.4-16.49-2.24-21.72c-4.64-5.23,2.14-21.59,11.83-22.54
			c7.27-0.71,1.65-9.08,18.59-11.41c16.94-2.33,14.31,6.78,19.69,6.59c7.74-0.28,15.44,8.14,16.45,14.41
			c1.02,6.27-3.89,15.31-2.07,18.81c1.81,3.5,4,26.81-18.02,22.3C139.21,124.69,141.23,135.18,126.58,130.56z"/>
		<path class="st6" d="M159.61,113.61c0,0-0.04,24.44,0.33,27.82c0.37,3.37,20.11,1.14,26.7,7.3c6.59,6.16-15.54,24.35-28.98,32.19
			c-10.3,6.01-45.45-33.53-37.03-33.82s20.46-2.76,20.08-8.94s0-16.33,0-16.33S158.39,114.55,159.61,113.61z"/>
		<path class="st6" d="M165.96,94.22c0,0,5.69,38.44-16.1,39.83c-14.99,0.96-22.66-24.09-19.1-36.12
			C134.32,85.9,156.69,85.2,165.96,94.22z"/>
		<path class="st6" d="M132.84,112.82c0,0-2.91-7.05-5.93-3.71c-3.02,3.34,1.09,11.77,4.17,11.54
			C134.16,120.41,134.48,115.67,132.84,112.82z"/>
		<path class="st6" d="M165.43,112.8c0,0,0.62-6.6,4.03-3.66s-0.58,11.48-3.67,11.63C162.7,120.92,164.15,115.83,165.43,112.8z"/>
		<path class="st7" d="M123.25,146.94c0,0,9.51,17.19,27.67,16.05c16.88-1.06,28.52-18.65,28.52-18.65
			c7.22,1.83,7.51,4.65,13.94,22.55c6.43,17.9,10.17,45.17,9.24,74.22c-0.14,4.43-19.6,1.46-50.3,2.65s-33.08,1.16-49.76-2.65
			c-4.36-1-1.29-0.64-0.13-18.76c1.59-24.66-7.98-65.11,0.46-70.48C114.31,144.61,123.25,146.94,123.25,146.94z"/>
		<path class="st5" d="M129.9,108.2c0,0,1.68-3.43,6.37-6.12c7.4-4.24,8.79-11.86,13.53-13.98c4.74-2.12,13.22,20.46,16.83,20.11
			c3.61-0.35,6.31-9.9,5.5-13.57c-0.81-3.67-9.42-19.08-22.99-17.04C125.85,81.09,129.26,90.11,129.9,108.2z"/>
		<path class="st2" d="M135.08,106.86l-0.17-1.19c0.04-0.01,3.88-0.58,5.45-1.71l0.7,0.98
			C139.24,106.24,135.25,106.83,135.08,106.86z"/>
		<path class="st2" d="M162.16,106.71c-2.17,0-5.45-0.85-5.6-0.89l0.3-1.16c0.03,0.01,3.38,0.88,5.37,0.85l0.01,1.2
			C162.22,106.71,162.19,106.71,162.16,106.71z"/>
		<g>
			<path class="st8" d="M134.3,110.93c0,0,2.22-1.69,4.62-1.58c2.4,0.1,5.41,1.15,4.97,2.26c-0.44,1.12-2,2.45-4.99,2.11
				S132.63,111.88,134.3,110.93z"/>
			<path class="st2" d="M143.57,110.75c0,0-0.45-2.31-5.34-2.51c-2.83-0.12-5.36,2.38-6.48,2.35s1.44,1.5,2.34,1.42
				c0,0,1.83-2.28,4.09-2.51C140.44,109.27,141.31,109.99,143.57,110.75z"/>
			<path class="st2" d="M141.13,109.52c0,0,0.75,4.9-2.23,4.2c-1.59-0.37-2.9-0.26-2.58-3.58
				C136.32,110.14,138.27,108.27,141.13,109.52z"/>
		</g>
		<g>
			<path class="st8" d="M164.44,111.08c0,0-2.14-1.78-4.54-1.79c-2.4-0.01-5.46,0.9-5.07,2.04s1.88,2.53,4.89,2.33
				C162.72,113.46,166.06,112.1,164.44,111.08z"/>
			<path class="st2" d="M155.18,110.48c0,0,0.55-2.29,5.45-2.27c2.84,0.01,5.25,2.61,6.37,2.64c1.12,0.03-1.51,1.43-2.4,1.31
				c0,0-1.73-2.36-3.97-2.69C158.37,109.15,157.48,109.83,155.18,110.48z"/>
			<path class="st2" d="M157.68,109.37c0,0-0.86,4.24,2.04,4.29c1.63,0.03,2.91-0.13,2.74-3.46
				C162.46,110.2,160.59,108.24,157.68,109.37z"/>
		</g>
		<path class="st4" d="M127.4,128.76c0,0,12.69-14.34,22.5-14.81c3.91-0.19-3.56,5.18-3.56,5.18s10.52-3.7,13.96-1.24
			c1.76,1.26-9.9,5-8.69,4.77c1.21-0.24,10.7-3.24,10.64-0.71c-0.06,2.53-9.67,5.55-9.67,5.55s9.56-2.6,10.14-1.15
			c1.6,3.98-14.46,7.54-17.5,11.26c-2.64,3.22-2.61,2.4-3,13.4C141.99,157.24,110.4,150.99,127.4,128.76z"/>
		<path class="st9" d="M204.1,299.92c0,0-106.21,0.03-108.12,0.03s2.23-48.98,3.6-53.54c1.36-4.56,99.36-2.56,102.1-2.32
			C204.42,244.33,204.1,281.46,204.1,299.92z"/>
		<path class="st6" d="M86.34,209.38c0,0,10.88,40.74,16.33,49.42c5.44,8.68,35.9,40.32,38.66,41.2s20.91-0.07,20.91-0.07
			c-13.66-37.41-34.62-48.26-35.66-55.33c-1.04-7.07-11.39-37.08-11.83-39.06C114.31,203.56,86.34,209.38,86.34,209.38z"/>
		<path class="st7" d="M73.11,209.31c0,0,15.41,4.83,46.2-1.93c9.69-2.13-8.13-24.36-6.84-38.22c1.29-13.86-3.07-20.59-3.07-20.59
			C105.72,151.25,84.59,151.3,73.11,209.31z"/>
		<path class="st2" d="M118.74,216.62c-0.26-0.23-6.47-5.83-6.73-16.98c-0.25-10.64-3.09-19.72-3.12-19.81l1.72-0.54
			c0.12,0.38,2.94,9.42,3.2,20.31c0.24,10.33,6.07,15.63,6.12,15.68L118.74,216.62z"/>
		<path class="st4" d="M142.14,144.49c0,0,2.98,49.79-14.63,53.25S63.99,180.8,63.69,176.6c-0.3-4.2,17-32.95,24.5-32.95
			s19.9,22.75,24.1,19.75c4.2-3,5.9-29.32,19.28-38.24c5.48-3.66,15.15,9.57,13.57,11.11C140.44,140.89,142.14,144.49,142.14,144.49
			z"/>
		<path class="st4" d="M205.88,211.57c0,0-9.76,13.9-24.86,14.66c-15.1,0.76-21.93-13.87-25.04-11.89
			c-3.11,1.98,7.17,11.08,4.8,10.29c-2.37-0.79-17.4-11.87-17.21-9.1s13.13,14.64,11.41,13.85s-10.44-10.43-13.54-8.88
			c-2.67,1.33,10.57,12.84,10.57,12.84s-14.87-10.88-12.51-6.16c2.36,4.72,6.64,14.4,20.88,19.06c10.41,3.41,27.9,5.57,42.14,1.82
			C216.77,244.28,205.88,211.57,205.88,211.57z"/>
		<path class="st6" d="M219.76,209.38c0,0-6.42,36.58-11.86,45.26c-5.44,8.68-32.86,44.41-35.62,45.29s-22.95,0.02-22.95,0.02
			c-2.08-2.48,31.09-53.89,32.13-60.96c1.04-7.07,9.46-31.47,9.9-33.45C191.79,203.56,219.76,209.38,219.76,209.38z"/>
		<path class="st7" d="M226.89,209.31c0,0-28.51,6.4-38.3,4.83c-9.79-1.57,0.23-31.12-1.06-44.98c-1.29-13.86-4.53-22-8.09-24.83
			C179.45,144.34,217.02,147.42,226.89,209.31z"/>
		<path class="st2" d="M188.94,216.62l-1.19-1.35c0.06-0.05,5.88-5.35,6.12-15.68c0.26-10.89,3.08-19.93,3.2-20.31l1.72,0.54
			c-0.03,0.09-2.87,9.19-3.12,19.81C195.41,210.78,189.2,216.38,188.94,216.62z"/>
	</g>
	<g class="st0">
		<path class="st1" d="M30.5,176c7.43-0.72,24.42-2.85,30.63-1.9c6.21,0.95,3.1,5.94-5.51,6.82s-20.16,3.02-20.55,4.05
			c-0.39,1.03,2.96,5.82,2.12,13.38c-0.85,7.56-3.19,10.06-11.1,12.27s-13.17-2.42-19.33-1.87c-5.59,0.5-30.59,1.03-30.59,1.03
			s-3.52-23.99-1.36-24.04c30.52-0.76,29.48-10.3,40.05-11.11C24.43,173.9,26.96,176.35,30.5,176z"/>
		<path class="st2" d="M32.67,207.53c-2.23-0.2-13.38-1.44-13.49-6.22c-0.01-0.35,0.09-0.88,0.6-1.36c0.35-0.33,0.9-0.6,1.59-0.81
			c-0.83-0.5-1.41-1.14-1.61-1.97c-0.18-0.72-0.03-1.42,0.44-2.03c0.32-0.42,0.81-0.79,1.42-1.11c-2.04-0.34-3.78-0.97-4.75-2.06
			c-0.59-0.66-1.2-1.82-0.71-3.56c0.79-2.87,10.95-3.27,16.93-3.24l-0.01,1.8c-7.54-0.03-14.64,0.88-15.2,1.95
			c-0.28,1.02,0.05,1.56,0.33,1.87c1.27,1.42,4.75,1.82,8.36,1.79c3.63-0.63,7.6-0.72,8.81-0.74l0.15,1.79
			c-0.78,0.13-4.68,0.72-8.78,0.75c-2.45,0.42-4.48,1.03-5.12,1.87c-0.15,0.19-0.16,0.34-0.12,0.49c0.22,0.88,1.64,1.46,3.6,1.81
			c4.19-0.31,9.38,0.08,10.83,0.21l0.01,1.79c-1.53,0.15-6.82,0.56-10.95-0.19c-2.25,0.17-3.76,0.49-4.02,0.95
			c0.06,2.32,6.97,4,11.86,4.43L32.67,207.53z"/>
		<g>
			<path class="st1" d="M15.61,179.83c0,0,18.88,19.15,11.97,20.83c-2.44,0.59-6.82-4-10.02-5.89c-3.2-1.89,1.8,9.83-7.19,8.63"/>
			<path class="st2" d="M29.71,200.1c-0.28,0.57-0.83,1.17-1.92,1.44c-2.06,0.5-4.64-1.49-7.36-3.6c-1.14-0.88-2.23-1.72-3.19-2.31
				c-0.05,0.38-0.07,0.95-0.09,1.41c-0.07,1.97-0.18,4.67-2.02,6.22c-1.14,0.97-2.78,1.31-4.87,1.04l0.24-1.78
				c1.56,0.21,2.73,0,3.48-0.63c1.24-1.05,1.32-3.19,1.38-4.92c0.06-1.55,0.1-2.66,0.97-3.14c0.49-0.27,1.06-0.21,1.7,0.17
				c1.1,0.65,2.33,1.6,3.51,2.52c2.06,1.59,4.62,3.57,5.84,3.27c0.58-0.14,0.72-0.39,0.79-0.62c0.86-3.02-7.63-13.08-13.18-18.71
				l1.28-1.26c2.52,2.56,15.02,15.56,13.63,20.46C29.84,199.8,29.78,199.95,29.71,200.1z"/>
		</g>
	</g>
	<g class="st0">
		<path class="st1" d="M226.67,28.65c-3.89,6.37-13.24,20.71-15.1,26.71c-1.86,6,3.99,5.39,8.54-1.97s11.53-16.81,12.62-16.71
			c1.1,0.1,3.94,5.21,11.11,7.75c7.17,2.54,10.44,1.52,15.88-4.62c5.44-6.14,3.58-12.9,6.77-18.2c2.89-4.81,14.3-27.07,14.3-27.07
			s-20.04-13.65-21.03-11.73c-14.02,27.11-22.15,22.01-27.49,31.16C227.42,22.28,228.52,25.62,226.67,28.65z"/>
		<path class="st2" d="M254.08,44.38c0.8-2.1,4.55-12.66,0.3-14.85c-0.31-0.16-0.83-0.3-1.48-0.05c-0.45,0.17-0.93,0.55-1.42,1.08
			c-0.09-0.96-0.41-1.77-1.07-2.31c-0.57-0.48-1.26-0.65-2.01-0.49c-0.52,0.11-1.06,0.39-1.62,0.79c0.58-1.98,0.78-3.82,0.22-5.17
			c-0.34-0.82-1.11-1.87-2.89-2.2c-2.93-0.54-7.72,8.42-10.32,13.81l1.62,0.78c3.27-6.79,7.19-12.78,8.39-12.82
			c1.05,0.19,1.38,0.73,1.54,1.11c0.72,1.76-0.44,5.07-2.04,8.3c-2.15,3-3.97,6.52-4.51,7.6l1.54,0.92
			c0.45-0.65,2.69-3.89,4.52-7.57c1.45-2.02,2.89-3.58,3.92-3.79c0.24-0.05,0.37,0.01,0.49,0.11c0.69,0.58,0.6,2.11,0.05,4.03
			c-2.11,3.63-4.02,8.47-4.54,9.83l1.61,0.79c0.8-1.31,3.48-5.89,4.62-9.94c1.13-1.95,2.09-3.17,2.61-3.2
			c2.06,1.07,0.55,8.01-1.2,12.6L254.08,44.38z"/>
		<g>
			<path class="st1" d="M236.62,16.94c0,0,8.98,25.35,13.51,19.87c1.6-1.94-0.62-7.88-0.92-11.59c-0.3-3.7,8.06,5.91,10.91-2.69"/>
			<path class="st2" d="M248.69,38.48c0.63,0,1.41-0.24,2.13-1.1c1.35-1.64,0.68-4.82-0.02-8.2c-0.29-1.42-0.58-2.75-0.68-3.88
				c0.36,0.12,0.89,0.35,1.31,0.53c1.8,0.79,4.28,1.88,6.48,0.9c1.37-0.61,2.4-1.93,3.06-3.93l-1.71-0.56
				c-0.5,1.5-1.2,2.46-2.08,2.85c-1.48,0.66-3.45-0.21-5.03-0.9c-1.42-0.63-2.44-1.07-3.24-0.5c-0.45,0.32-0.65,0.86-0.59,1.6
				c0.1,1.27,0.42,2.79,0.73,4.26c0.53,2.55,1.19,5.72,0.39,6.68c-0.38,0.46-0.66,0.48-0.9,0.44c-3.09-0.55-8.43-12.58-11.07-20.03
				l-1.69,0.6c1.2,3.38,7.43,20.31,12.45,21.2C248.36,38.46,248.52,38.48,248.69,38.48z"/>
		</g>
	</g>
	<g class="st0">
		<path class="st1" d="M278.23,112.74c-2.94,1.14-9.84,21.24-12.46,18.45s4.2-14.6,0.14-15.65c-4.06-1.05-37.31,7.67-33.9,0.08
			c2.82-6.27,23.83-6.1,23.74-9.52s-4.17-12.1-1.8-15.69s13.66-9.3,19.63-7.12c5.97,2.18,27.4-6.53,31.25-5.8
			c3.85,0.73,7.5,23.97,7.63,29.9C312.6,113.32,286.82,109.43,278.23,112.74z"/>
		<g>
			<path class="st3" d="M259.11,98.75c0,0-3.44,0.66-4.71,1.38"/>
			<path class="st2" d="M254.81,100.86c0.95-0.54,3.54-1.11,4.45-1.29l-0.32-1.64c-0.36,0.07-3.61,0.71-4.96,1.48L254.81,100.86z"/>
		</g>
		<g>
			<path class="st3" d="M260.07,104.5c0,0-3.44,0.66-4.71,1.38"/>
			<path class="st2" d="M255.77,106.61c0.95-0.54,3.54-1.11,4.46-1.29l-0.32-1.64c-0.36,0.07-3.61,0.71-4.97,1.48L255.77,106.61z"/>
		</g>
		<g>
			<line class="st3" x1="258.22" y1="92.36" x2="253.24" y2="94.24"/>
			
				<rect x="253.07" y="92.46" transform="matrix(0.9356 -0.3529 0.3529 0.9356 -16.4723 96.2617)" class="st2" width="5.33" height="1.67"/>
		</g>
	</g>
	<g class="st0">
		<path class="st1" d="M309.92,284.79c0,0-46.32-30.18-61.48-35.48c-15.16-5.31,3.33,11.78,10.29,16.07
			c6.96,4.28-0.5,13.66-3.33,19.03c-2.82,5.37,3.63,15.1,13.06,17.01c9.43,1.9,12.44-3.31,24.25,9.46L309.92,284.79z"/>
		<g>
			<path class="st3" d="M266,273.67c0,0-3.3-1.16-4.77-1.18"/>
			<path class="st2" d="M261.23,273.33c1.09,0.01,3.61,0.82,4.5,1.13l0.55-1.58c-0.35-0.12-3.48-1.21-5.03-1.22L261.23,273.33z"/>
		</g>
		<g>
			<path class="st3" d="M263.24,280.1c0,0-2.87-2.01-4.27-2.42"/>
			<path class="st2" d="M258.73,278.48c1.04,0.31,3.26,1.76,4.03,2.3l0.96-1.37c-0.3-0.21-3.02-2.1-4.52-2.53L258.73,278.48z"/>
		</g>
		<g>
			<path class="st3" d="M259.41,286.4c0,0-3-1.8-4.43-2.12"/>
			<path class="st2" d="M254.8,285.1c1.06,0.23,3.37,1.53,4.18,2.02l0.86-1.44c-0.32-0.19-3.16-1.88-4.68-2.22L254.8,285.1z"/>
		</g>
	</g>
	<g class="st0">
		<path class="st1" d="M-11.77,283.89c0,0,46.32-30.18,61.48-35.48c15.16-5.31-3.33,11.78-10.29,16.07s0.5,13.66,3.33,19.03
			c2.82,5.37-3.63,15.1-13.06,17.01s-12.44-3.31-24.25,9.46L-11.77,283.89z"/>
		<g>
			<path class="st3" d="M32.15,272.77c0,0,3.3-1.16,4.77-1.18"/>
			<path class="st2" d="M36.92,272.43c-1.09,0.01-3.61,0.82-4.5,1.13l-0.55-1.58c0.35-0.12,3.48-1.21,5.03-1.22L36.92,272.43z"/>
		</g>
		<g>
			<path class="st3" d="M34.91,279.2c0,0,2.87-2.01,4.27-2.42"/>
			<path class="st2" d="M39.42,277.58c-1.04,0.31-3.26,1.76-4.03,2.3l-0.96-1.37c0.3-0.21,3.02-2.1,4.52-2.53L39.42,277.58z"/>
		</g>
		<g>
			<path class="st3" d="M38.74,285.5c0,0,3-1.8,4.43-2.12"/>
			<path class="st2" d="M43.35,284.2c-1.06,0.23-3.37,1.53-4.18,2.02l-0.86-1.44c0.32-0.19,3.16-1.88,4.68-2.22L43.35,284.2z"/>
		</g>
	</g>
	<g class="st0">
		<path class="st1" d="M265.02,176c-7.43-0.72-24.42-2.85-30.63-1.9c-6.21,0.95-3.1,5.94,5.51,6.82c8.61,0.88,20.16,3.02,20.55,4.05
			s-2.96,5.82-2.12,13.38c0.85,7.56,3.19,10.06,11.1,12.27s13.17-2.42,19.33-1.87c5.59,0.5,30.59,1.03,30.59,1.03
			s3.52-23.99,1.36-24.04c-30.52-0.76-29.48-10.3-40.05-11.11C271.08,173.9,268.55,176.35,265.02,176z"/>
		<path class="st2" d="M262.85,207.53c2.23-0.2,13.38-1.44,13.49-6.22c0.01-0.35-0.09-0.88-0.6-1.36c-0.35-0.33-0.9-0.6-1.59-0.81
			c0.83-0.5,1.41-1.14,1.61-1.97c0.18-0.72,0.03-1.42-0.44-2.03c-0.32-0.42-0.81-0.79-1.42-1.11c2.04-0.34,3.78-0.97,4.75-2.06
			c0.59-0.66,1.2-1.82,0.71-3.56c-0.79-2.87-10.95-3.27-16.93-3.24l0.01,1.8c7.54-0.03,14.64,0.88,15.2,1.95
			c0.28,1.02-0.05,1.56-0.33,1.87c-1.27,1.42-4.75,1.82-8.36,1.79c-3.63-0.63-7.6-0.72-8.81-0.74l-0.15,1.79
			c0.78,0.13,4.68,0.72,8.78,0.75c2.45,0.42,4.48,1.03,5.12,1.87c0.15,0.19,0.16,0.34,0.12,0.49c-0.22,0.88-1.64,1.46-3.6,1.81
			c-4.19-0.31-9.38,0.08-10.83,0.21l-0.01,1.79c1.53,0.15,6.82,0.56,10.95-0.19c2.25,0.17,3.76,0.49,4.02,0.95
			c-0.06,2.32-6.97,4-11.86,4.43L262.85,207.53z"/>
		<g>
			<path class="st1" d="M279.91,179.83c0,0-18.88,19.15-11.97,20.83c2.44,0.59,6.82-4,10.02-5.89c3.2-1.89-1.8,9.83,7.19,8.63"/>
			<path class="st2" d="M265.81,200.1c0.28,0.57,0.83,1.17,1.92,1.44c2.06,0.5,4.64-1.49,7.36-3.6c1.14-0.88,2.23-1.72,3.19-2.31
				c0.05,0.38,0.07,0.95,0.09,1.41c0.07,1.97,0.18,4.67,2.02,6.22c1.14,0.97,2.78,1.31,4.87,1.04l-0.24-1.78
				c-1.56,0.21-2.73,0-3.48-0.63c-1.24-1.05-1.32-3.19-1.38-4.92c-0.06-1.55-0.1-2.66-0.97-3.14c-0.49-0.27-1.06-0.21-1.7,0.17
				c-1.1,0.65-2.33,1.6-3.51,2.52c-2.06,1.59-4.62,3.57-5.84,3.27c-0.58-0.14-0.72-0.39-0.79-0.62
				c-0.86-3.02,7.63-13.08,13.18-18.71l-1.28-1.26c-2.52,2.56-15.02,15.56-13.63,20.46C265.68,199.8,265.73,199.95,265.81,200.1z"/>
		</g>
	</g>
</g>
</svg>
