<svg width="385" height="87" viewBox="0 0 385 87" fill="none" xmlns="http://www.w3.org/2000/svg">
<path fill-rule="evenodd" clip-rule="evenodd" d="M0.00106039 15.9613V42.6104C0.00106039 63.9595 16.4073 77.3137 31.0422 84.351C37.6505 87.5291 38.0043 86.6583 44.1443 83.4357C48.4983 81.1518 51.9571 78.9049 55.5388 76.1538C76.7375 59.8673 73.3433 43.8869 73.3804 20.4858C73.3963 10.245 75.0086 13.4209 52.0524 4.95035C32.2414 -2.35919 40.0097 -1.94181 11.2345 8.67397C3.81474 11.4113 0 11.4082 0 15.9613H0.00106039ZM5.01181 19.668V42.6866C5.01181 61.1268 19.1838 72.6621 31.8251 78.7417C37.5329 81.4865 37.838 80.7344 43.1422 77.9515C46.9029 75.9779 49.8903 74.0382 52.9836 71.6621C71.2934 57.5949 68.3633 43.7916 68.3951 23.577C68.4088 14.7314 69.8019 17.474 49.9729 10.1582C32.8612 3.8444 39.5711 4.20457 14.7165 13.3743C8.30746 15.7388 5.01287 15.7357 5.01287 19.668H5.01181Z" fill="#1A3855"/>
<path fill-rule="evenodd" clip-rule="evenodd" d="M18.4888 58.7131C19.2325 51.3792 20.4836 49.0295 24.542 45.0157C30.6735 38.9498 40.4598 37.1478 45.4642 26.4833C47.7365 21.64 48.3033 15.1652 46.1592 10.0029C43.8286 16.234 40.8645 18.8507 36.9354 22.4037C35.1609 24.0086 32.8304 25.6104 30.7858 27.0702C25.6723 30.7229 15.8182 37.5323 14.2249 42.9732C13.2609 46.2635 12.9749 49.1789 14.3213 52.412C14.9241 53.8591 17.4877 58.0266 18.4878 58.7131H18.4888Z" fill="#1A3855"/>
<path fill-rule="evenodd" clip-rule="evenodd" d="M27.8896 71.9232C29.3039 69.2664 28.6672 68.8659 31.5137 65.2641C33.3739 62.9102 34.6568 61.7428 36.8751 59.8042C40.1983 56.8995 45.3308 53.4163 49.2854 50.5719C52.5376 48.2318 58.5505 43.8471 59.6671 39.6161C61.1428 34.028 59.1311 25.7502 55.4858 23.3232C55.0091 42.2369 35.7628 40.0346 28.5157 55.5912C26.4034 60.1252 25.7042 67.1964 27.8896 71.9221V71.9232Z" fill="#1A3855"/>
<path d="M350.127 24.4009V29.5116H364.63V69.1226H370.189V29.5116H384.691V24.4009H350.127Z" fill="#1A3855"/>
<path d="M318.31 24.4009V69.1226H347.635V64.012H323.868V48.9341H342.971V43.8228H323.868V29.5116H346.805V24.4009H318.31Z" fill="#1A3855"/>
<path d="M275.057 69.1226H280.488V34.6229L304.51 69.1226H309.622V24.4009H304.191V58.9006L280.169 24.4009H275.057V69.1226Z" fill="#1A3855"/>
<path d="M253.145 24.4009H236.022V29.5122H248.999C253.033 29.5122 256.265 30.3001 258.697 31.8759C261.129 33.4517 262.345 35.5393 262.345 38.1372C262.345 40.7777 261.129 42.8865 258.697 44.4623C256.265 46.0381 253.003 46.826 248.91 46.826H236.022V69.1233H241.581V51.9373H253.017L262.281 69.1233H268.542L258.511 50.8513C261.408 50.0421 263.718 48.498 265.443 46.2194C267.168 43.9409 268.031 41.2468 268.031 38.1372C268.031 35.3689 267.413 32.9516 266.178 30.8861C264.943 28.8205 263.197 27.2228 260.939 26.0942C258.682 24.9656 256.083 24.4009 253.145 24.4009Z" fill="#1A3855"/>
<path d="M200.436 24.4009V69.1226H229.761V64.012H205.993V48.9341H225.097V43.8228H205.993V29.5116H228.93V24.4009H200.436Z" fill="#1A3855"/>
<path d="M166.702 24.4009V69.1226H172.261V49.573H190.661V44.4616H172.261V29.5116H194.494V24.4009H166.702Z" fill="#1A3855"/>
<path d="M91.3135 54.4924H85.8188C85.9466 57.431 86.7242 60.0399 88.1509 62.3184C89.5777 64.5969 91.5903 66.365 94.1882 67.6214C96.7862 68.8778 99.832 69.5063 103.324 69.5063C106.433 69.5063 109.191 68.9526 111.597 67.8453C114.004 66.738 115.878 65.1836 117.22 63.1819C118.561 61.1795 119.233 58.901 119.233 56.3457C119.233 52.4268 117.891 49.5844 115.208 47.8162C112.525 46.0488 108.947 44.7814 104.474 44.0148C101.663 43.5463 99.448 43.0669 97.8296 42.5771C96.2112 42.0874 94.891 41.3633 93.8681 40.4051C92.846 39.4468 92.3349 38.1156 92.3349 36.412C92.3349 34.069 93.208 32.2486 94.9542 30.9497C96.7003 29.6507 99.064 29.0009 102.046 29.0009C105.028 29.0009 107.519 29.7888 109.521 31.3646C111.523 32.9404 112.694 35.0272 113.034 37.6258H118.529C118.359 34.9427 117.571 32.568 116.165 30.5025C114.76 28.4369 112.843 26.8289 110.415 25.679C107.988 24.5291 105.197 23.9541 102.046 23.9541C99.0647 23.9541 96.4132 24.4865 94.0914 25.5512C91.7703 26.6159 89.9706 28.1175 88.6929 30.0553C87.4152 31.9931 86.7764 34.2187 86.7764 36.7315C86.7764 40.6496 88.0967 43.4825 90.7379 45.2286C93.3784 46.9747 96.9352 48.2311 101.407 48.9977C104.219 49.4662 106.444 49.9457 108.083 50.4355C109.723 50.9252 111.065 51.6808 112.108 52.7037C113.151 53.7258 113.673 55.1099 113.673 56.8567C113.673 59.2417 112.725 61.1053 110.83 62.4469C108.935 63.7884 106.454 64.4596 103.387 64.4596C99.9803 64.4596 97.1688 63.5549 94.9542 61.7442C92.7395 59.9341 91.5251 57.5169 91.3121 54.4931L91.3135 54.4924Z" fill="#1A3855"/>
<path fill-rule="evenodd" clip-rule="evenodd" d="M126.771 69.1226H121.022L138.08 24.4009H144.661L161.655 69.1226H155.713L150.986 57.048H131.499L126.771 69.1226ZM141.21 30.4697L133.16 52.0004H149.324L141.21 30.4697Z" fill="#1A3855"/>
<path fill-rule="evenodd" clip-rule="evenodd" d="M236.285 45.5497C236.586 45.0702 236.45 44.9983 237.054 44.3481C237.448 43.9235 237.72 43.7124 238.19 43.3628C238.894 42.8388 239.982 42.2102 240.82 41.6968C241.51 41.2747 242.784 40.4835 243.021 39.7199C243.334 38.7118 242.908 37.2178 242.135 36.7798C242.034 40.1923 237.954 39.7953 236.418 42.602C235.97 43.4201 235.822 44.696 236.285 45.5485V45.5497Z" fill="#1A3855"/>
<path fill-rule="evenodd" clip-rule="evenodd" d="M236.285 39.4198C236.586 38.9403 236.45 38.8684 237.054 38.2182C237.448 37.7937 237.72 37.5826 238.19 37.2329C238.894 36.709 239.982 36.0804 240.82 35.567C241.51 35.1448 242.784 34.3536 243.021 33.59C243.334 32.5819 242.908 31.0879 242.135 30.6499C242.034 34.0624 237.954 33.6654 236.418 36.4721C235.97 37.2902 235.822 38.5661 236.285 39.4186V39.4198Z" fill="#1A3855"/>
</svg>
