<?xml version="1.0" encoding="utf-8"?>
<!-- Generator: Adobe Illustrator 24.2.3, SVG Export Plug-In . SVG Version: 6.00 Build 0)  -->
<svg version="1.1" id="Layer_1" xmlns="http://www.w3.org/2000/svg" xmlns:xlink="http://www.w3.org/1999/xlink" x="0px" y="0px"
	 viewBox="0 0 300 300" style="enable-background:new 0 0 300 300;" xml:space="preserve">
<style type="text/css">
	.st0{fill:#C75F28;}
	.st1{fill:#F9E4C6;}
	.st2{fill:#FCF8F1;}
	.st3{fill:#071B2C;}
	.st4{fill:#FAAF70;}
	.st5{fill:#E9945E;}
	.st6{fill:#BE6228;}
	.st7{fill:#84312E;}
	.st8{fill:#261B13;}
	.st9{opacity:0.4;}
	.st10{fill:#FFFFFF;}
	.st11{fill:#1F141C;}
	.st12{fill:#281021;}
	.st13{fill:#E87554;}
	.st14{fill:#833A29;}
	.st15{fill:none;stroke:#1F141C;stroke-width:1.2;stroke-linecap:round;stroke-linejoin:round;stroke-miterlimit:10;}
	.st16{fill:#954821;}
	.st17{fill:#F26322;}
	.st18{fill:#FFC70A;}
	.st19{fill:#C85F28;}
</style>
<g>
	<g>
		<g>
			<path class="st0" d="M145.84,211.27L100.41,80.71c-1.71-4.93-6.86-8.55-11.5-8.08l-53.4,5.32c-3.57,0.36-5.78,3.03-5.83,6.49
				c-0.82,1.45-0.97,3.38-0.26,5.43L73.89,217.7c0.92,2.65,3.06,4.83,5.49,5.91c2.26,1.92,5.1,3.01,7.77,2.75l53.4-5.32
				C145.19,220.57,147.56,216.2,145.84,211.27z"/>
		</g>
		<g>
			<path class="st0" d="M145.84,211.27L100.41,80.71c-1.71-4.93-6.86-8.55-11.5-8.08l-53.4,5.32c-3.57,0.36-5.78,3.03-5.83,6.49
				c-0.82,1.45-0.97,3.38-0.26,5.43L73.89,217.7c0.92,2.65,3.06,4.83,5.49,5.91c2.26,1.92,5.1,3.01,7.77,2.75l53.4-5.32
				C145.19,220.57,147.56,216.2,145.84,211.27z"/>
		</g>
		<g>
			<g>
				<path class="st1" d="M65.14,77.06c0.35-0.04,0.74,0.24,0.87,0.61c0.13,0.37-0.05,0.71-0.4,0.74l-6.82,0.68
					c-0.35,0.04-0.74-0.24-0.87-0.61c-0.13-0.37,0.05-0.71,0.4-0.74L65.14,77.06z"/>
			</g>
		</g>
		<g>
			<g>
				<path class="st1" d="M67.5,76.82c0.04,0,0.09,0,0.13,0c0.05,0,0.09,0.01,0.13,0.03l0.13,0.05l0.13,0.08
					c0.09,0.06,0.16,0.12,0.22,0.2c0.06,0.08,0.11,0.16,0.14,0.25c0.06,0.18,0.05,0.36-0.03,0.5c-0.07,0.14-0.21,0.22-0.38,0.24
					c-0.17,0.02-0.36-0.04-0.52-0.15c-0.17-0.12-0.29-0.28-0.35-0.46c-0.03-0.09-0.05-0.18-0.05-0.26c0.01-0.09,0.03-0.16,0.07-0.23
					C67.2,76.93,67.33,76.84,67.5,76.82z"/>
			</g>
		</g>
		<g>
			<g>
				<path class="st2" d="M139.04,216.67L85.63,222c-3.79,0.38-8-2.59-9.4-6.61l-16.05-46.13l-14.02-40.31l-4.04-11.61l-8.89-25.55
					l-1.47-4.23c-1.4-4.03,0.53-7.6,4.32-7.98l13.61-1.36c0.71-0.07,1.5,0.13,2.22,0.56l2.76,1.67c0.72,0.43,1.5,0.63,2.22,0.56
					l14.15-1.41c0.72-0.07,1.31-0.41,1.7-0.95l1.46-2.09c0.38-0.55,0.98-0.88,1.7-0.96l13.6-1.36c3.79-0.38,8,2.59,9.41,6.62
					l3.02,8.68l8.75,25.16l4.13,11.87l1.09,3.14l7.14,20.51l1.06,3.03l19.29,55.44C144.77,212.72,142.83,216.29,139.04,216.67z"/>
			</g>
		</g>
		<g>
			<path class="st3" d="M140.55,221.03l-53.4,5.32c-4.63,0.46-9.78-3.16-11.49-8.09L30.23,87.71c-1.11-3.19-0.51-6.15,1.32-7.97
				l-2.34,2.32c-1.82,1.81-2.43,4.77-1.32,7.97l45.43,130.57c1.71,4.93,6.86,8.55,11.49,8.09l53.4-5.32
				c1.63-0.16,2.98-0.81,3.97-1.79l2.34-2.32C143.54,220.22,142.19,220.87,140.55,221.03z"/>
		</g>
	</g>
	<g>
		<g>
			<g>
				<path class="st4" d="M144.4,97.18c-1,3.06-18.48,1.33-18.78,1.95c-0.29,0.62,2.08,1.89,1.5,2.95s-3.22,2.38-3.41,2.77
					c-0.19,0.39,0.95,1.61,0.8,2.81c-0.15,1.21-2.92,2.15-2.92,2.15c0,0.06,0,2.83-0.89,3.83c-0.72,0.81-3.1,1.59-10.04,1.06
					c-1.7-0.13-3.69-0.34-5.98-0.64c-4.4-0.58-46.79,2.2-62.57,3.27l-8.89-25.55c8.49,0.56,55.15,3.56,59.53,3.29
					c2.93-0.18,6.08-3.16,9.15-5.52c1.99-1.54,3.96-2.83,5.8-2.91c8.42-0.41,11.33-7.79,13.45-5.61c3.14,3.22-6.24,10.6-6.24,10.6
					S145.2,94.71,144.4,97.18z"/>
			</g>
		</g>
	</g>
	<g>
		<g>
			<g>
				<path class="st5" d="M63.93,162.74c0,0,67.58-14.78,73.56-15.12c5.97-0.34,16.48-1.82,17.29-3.05c0.8-1.24,0.33-4.3,0.33-4.3
					s2.85-1.48,2.81-2.81s-1.47-2.46-1.33-2.92c0.15-0.46,2.79-2.31,3.24-3.55c0.45-1.24-2.25-5.05-2.03-5.77
					c0.22-0.72,19.53-1.77,19.45-4.71c-0.07-2.71-21.7-1.62-21.7-1.62s0.05-0.39-2.92-1.9c-2.97-1.52-14.28-0.24-16.33,0.42
					c-2.05,0.66-9.63,10.46-14.82,11.57c-5.19,1.11-66.48,6.26-66.48,6.26L63.93,162.74z"/>
			</g>
			<g>
				<path class="st6" d="M133.33,135.44c-0.18,0-0.36-0.11-0.43-0.29c-0.09-0.24,0.02-0.5,0.26-0.6
					c9.72-3.8,12.05-11.49,12.07-11.57c0.06-0.19,0.23-0.33,0.43-0.33l5.17-0.1c0,0,0.01,0,0.01,0c0.2,0,0.38,0.13,0.44,0.33
					c1.36,4.59,3.24,8.62,3.96,8.45c0.75-0.17,1.23-4.21,1.02-8.64c-0.01-0.25,0.18-0.47,0.44-0.48c0.25-0.01,0.47,0.18,0.48,0.44
					c0.1,2.13,0.28,9.13-1.73,9.58c-1.93,0.43-4.03-5.72-4.95-8.75l-4.5,0.09c-0.55,1.58-3.39,8.28-12.51,11.85
					C133.45,135.43,133.39,135.44,133.33,135.44z"/>
			</g>
			<g>
				<path class="st6" d="M140.12,144.02c-0.09,0-0.18-0.03-0.26-0.08c-1.89-1.3-3.7-2.34-6.04-3.49c-0.23-0.11-0.32-0.39-0.21-0.61
					c0.11-0.23,0.39-0.32,0.61-0.21c2.38,1.17,4.23,2.24,6.16,3.56c0.21,0.14,0.26,0.43,0.12,0.64
					C140.41,143.96,140.26,144.02,140.12,144.02z"/>
			</g>
		</g>
		<g>
			<path class="st7" d="M106.72,156.02c0,0,0.05,5.29-6.55,7.14c-4.65,1.31-27.13,4.38-39.99,6.09l-14.02-40.31
				c12.77-1.47,47-5.36,50.53-5.17c4.96,0.27,5.39,3.87,5.39,3.87l0.56,3.4l3.69,22.62L106.72,156.02z"/>
		</g>
		<g>
			<path class="st7" d="M121.48,128.99c1.77-0.28,2.71-1.17,2.71-1.17l-0.43-0.86c-0.89-1.27-1.98-0.92-3.52-0.84l-18.16,1.52
				c-6.15,13.62,4.63,28.38,4.63,28.38l18.03-2.87c1.48-0.24,2.74-1.2,3.37-2.56l0.69-1.51l-3.57,0.58c0,0-2.7-3.11-3.95-10.8
				C120.03,131.17,121.48,128.99,121.48,128.99z"/>
		</g>
		<g>
			<path class="st8" d="M106.03,155.41c-0.15,0-0.3-0.07-0.39-0.21c-5.11-7.93-6.83-18.45-4.28-26.18c0.08-0.24,0.34-0.37,0.58-0.29
				c0.24,0.08,0.37,0.34,0.29,0.58c-2.47,7.47-0.79,17.68,4.18,25.39c0.14,0.21,0.08,0.5-0.14,0.64
				C106.2,155.38,106.12,155.41,106.03,155.41z"/>
		</g>
	</g>
</g>
<g>
	<g class="st9">
		<path class="st0" d="M225.6,192.7c0,0,27.43-3.87,33.62,1.5c6.19,5.37-32.82,32.04-32.82,32.04l-19.7-9.86l12.95-12.12
			c0,0-29.48,0.96-35.79-5.87c-6.31-6.82,16.55-10.51,16.55-10.51L225.6,192.7z"/>
	</g>
	<g>
		<g>
			<path class="st0" d="M217.89,219.82l4.54-9.65c0,0,11.17,5.56,11.17,5.56c-0.06-0.04-1.85,4.25-1.98,4.71
				c-0.47,1.7-0.63,3.64-0.03,5.33c0.75,2.13,1.73,4.22,2.57,6.31c0.39,0.97,0.78,1.94,1.17,2.9c0.58,1.44,0.44,3.06-0.38,4.34
				L217.89,219.82z"/>
		</g>
		<g>
			<polygon class="st10" points="234.96,239.33 234.1,240.48 216.91,221.5 217.89,219.82 			"/>
		</g>
	</g>
	<g>
		<g>
			<path class="st11" d="M227.23,149.63l-2.64,6.78l0.33,0.9c0,0,0.26,0.55,0.71,1.43c0.34,0.66,0.78,1.51,1.32,2.49
				c0.21,0.37,0.42,0.77,0.67,1.17l0,0.01c0.52,0.91,1.26,2.02,2.12,3.25L227.23,149.63z"/>
		</g>
		<g>
			<path class="st0" d="M219.65,132.78l7.78,4.37c0,0,1.96,17.42-0.47,24.08c-1.19,3.25-6.54,7.66-6.54,7.66l-1.78,9.34
				c-0.29,1.54-1.77,2.56-3.32,2.3l0,0l-31.96-5.48l0,0c-1.64-0.28-2.6-2.01-1.97-3.55l16.53-40.47c0,0,6.26-4.05,13.26-1.56
				C214.45,130.64,219.65,132.78,219.65,132.78z"/>
		</g>
		<g>
			<path class="st5" d="M233.78,142.6l0.67-16.37c0.02-0.41,0.13-0.81,0.32-1.17c0.7-1.3,2.42-4.52,2.57-4.97
				c0.19-0.57-1.57-5.82-2.44-5.96c-0.87-0.14-2.08,0.57-2.08,0.57s-0.01-0.7-0.47-0.97c-0.45-0.27-1.13,0.66-1.71,1.78
				c-0.46,0.88-1.3,2.33-2.19,3.58c-0.56,0.79-0.5,2.37-0.38,3.45c0.09,0.8,0.05,1.6-0.14,2.38l-1.12,4.77L233.78,142.6z"/>
		</g>
		<g>
			<path class="st11" d="M226.91,129.25c1.53-0.92,2.79-2.33,3.65-3.91c1.36-2.51,1.83-5.41,2.13-8.25l-2.85,2.2
				c-0.66,0.78-1.27,1.6-1.84,2.44c0.01,0.28,0.04,0.56,0.06,0.8c0.09,0.8,0.05,1.6-0.14,2.38L226.91,129.25z"/>
		</g>
		<g>
			<path class="st0" d="M236.2,131.84l-9.39-2.15l-8.87,39.49c-0.82,3.53,1.34,7.07,4.85,7.97h0c3.89,1,7.77-1.63,8.28-5.61
				L236.2,131.84z"/>
		</g>
		<g>
			<g>
				<path class="st5" d="M211.17,129.47l1.94-13.03c0,0-5.38,0.03-4.43-4.03c0.85-3.62,4.75-2.6,6.03-0.33
					c0,0,0.83-13.36,11.76-10.75c10.93,2.6,6.13,17.15,4.98,20.68c-2.02,6.21-7.46,7.68-10.77,6.9l-1.03,3.88
					c0,0-0.87,3.41-4.03,2.48C211.41,134.02,211.17,129.47,211.17,129.47z"/>
			</g>
		</g>
		<g>
			<g>
				<path class="st12" d="M223.4,119.97c-0.13-0.05-0.22-0.19-0.2-0.34c0.02-0.18,0.18-0.31,0.36-0.28c0.61,0.07,0.96,0,1.17-0.22
					c0.33-0.35,0.39-1.18,0.18-2.4c-0.03-0.18,0.09-0.34,0.26-0.37c0.18-0.03,0.34,0.09,0.37,0.26c0.26,1.49,0.14,2.42-0.35,2.95
					c-0.46,0.49-1.12,0.49-1.71,0.42C223.45,119.99,223.42,119.98,223.4,119.97z"/>
			</g>
		</g>
		<g>
			<g>
				<path class="st12" d="M212.87,114.56c-0.15-0.06-0.23-0.22-0.2-0.38c0.13-0.53-0.01-1.12-0.37-1.54
					c-0.36-0.41-0.92-0.64-1.47-0.59c-0.18,0.02-0.34-0.11-0.35-0.29c-0.02-0.18,0.11-0.34,0.29-0.35c0.75-0.08,1.53,0.23,2.02,0.8
					c0.5,0.57,0.69,1.38,0.51,2.12c-0.04,0.17-0.22,0.28-0.39,0.24C212.9,114.57,212.88,114.56,212.87,114.56z"/>
			</g>
		</g>
		<g>
			<g>
				<path class="st12" d="M211.56,113.71c-0.06-0.02-0.11-0.06-0.15-0.12c-0.1-0.15-0.06-0.35,0.09-0.45l0.98-0.66
					c0.15-0.1,0.35-0.06,0.45,0.09c0.1,0.15,0.06,0.35-0.09,0.45l-0.98,0.66C211.77,113.73,211.66,113.74,211.56,113.71z"/>
			</g>
		</g>
		<g>
			<path class="st6" d="M220.68,128.9c-2.23-0.36-5.67-3.68-5.67-3.68s1.52,3.81,5.16,5.6L220.68,128.9z"/>
		</g>
		<g>
			<path class="st13" d="M219.64,118.1c-0.56,0.78-1.64,0.95-2.41,0.39c-0.77-0.56-0.95-1.64-0.39-2.41
				c0.56-0.78,1.64-0.95,2.41-0.39C220.03,116.24,220.2,117.32,219.64,118.1z"/>
		</g>
		<g>
			<path class="st13" d="M229.53,121.57c-0.56,0.78-1.64,0.95-2.41,0.39c-0.78-0.56-0.95-1.64-0.39-2.41
				c0.56-0.78,1.64-0.95,2.41-0.39C229.91,119.71,230.08,120.79,229.53,121.57z"/>
		</g>
	</g>
	<g>
		<path class="st14" d="M242.71,148.84c5.03-3.03,11.39-2.66,16.04,0.92l0,0c5.69,4.39,7.22,12.34,3.56,18.52l-28.71,47.44
			l-8.11-4.04L242.71,148.84z"/>
	</g>
	<g class="st9">
		<path class="st0" d="M217.89,219.82l4.54-9.65c0,0,1.29,0.64,2.99,1.49c-0.55,1.25-1.52,3.61-1.61,3.94
			c-0.47,1.7-0.63,3.64-0.03,5.33c0.75,2.13,1.73,4.22,2.57,6.31c0.39,0.97,0.78,1.94,1.17,2.9c0.42,1.05,0.46,2.19,0.14,3.22
			l-10.75-11.87L217.89,219.82z"/>
	</g>
	<g>
		<g>
			<path class="st0" d="M207.69,214.71l4.63-9.85c0,0,11.07,5.75,11.08,5.76c-0.06-0.04-1.85,4.25-1.98,4.71
				c-0.47,1.7-0.63,3.64-0.03,5.33c0.75,2.13,1.73,4.22,2.57,6.31c0.39,0.97,0.78,1.94,1.17,2.9c0.58,1.44,0.44,3.06-0.38,4.34
				L207.69,214.71z"/>
		</g>
		<g>
			<circle class="st10" cx="213.26" cy="212.73" r="2.62"/>
		</g>
		<g>
			<polygon class="st10" points="224.76,234.22 223.9,235.37 206.71,216.39 207.69,214.71 			"/>
		</g>
	</g>
	<g>
		<path class="st14" d="M183.34,175.04l-0.32,2.8c-1.52,13.4,4.89,19.55,22.91,23.76l6.38,3.25l13.17,6.83l28.33-47.86
			c3.66-6.19,2.14-14.13-3.56-18.52v0c-4.65-3.58-11.01-3.95-16.04-0.92L183.34,175.04z"/>
	</g>
	<g>
		<path class="st3" d="M238.33,158.23l-32.39,43.38c-1.12-0.26-2.2-0.53-3.24-0.81L238.33,158.23z"/>
	</g>
	<g>
		<path class="st11" d="M227.43,206.37c-0.05,0-0.1-0.01-0.14-0.04c-0.13-0.08-0.17-0.25-0.09-0.38l26.25-43.01
			c2.12-3.53,2.4-7.99,0.72-11.63c-0.06-0.14,0-0.3,0.14-0.37c0.14-0.06,0.3,0,0.37,0.14c1.75,3.81,1.46,8.47-0.75,12.15
			l-26.25,43.01C227.61,206.32,227.52,206.37,227.43,206.37z"/>
	</g>
	<g>
		<path class="st11" d="M212.72,110.3c0,0,1.61,0.27,1.85,2.3c0.24,2.03,0.3,4.14,0.95,4.24c0.65,0.1,1.35-4.42,1.35-4.42
			s2.14-1.44,2.91-5.56c0,0,7.38,10.96,16.79,9.84c4.24-0.5,7.42-2.67,9.64-4.91l-5.89-1.48c0,0,6.98-2.54,8.2-7.44
			c0,0-6.32,0.52-9.57-0.84c0,0,2.29-0.96,2.99-3.51c0,0-5.81,2.37-10.58,0.37s-11.05-5.08-13.76,2.34c0,0-3.32-1.71-4.68,1.58
			C211.57,106.1,212.72,110.3,212.72,110.3z"/>
	</g>
	<g>
		<path class="st11" d="M218.65,102.09c-0.61,0.05-1.18-0.31-1.65-0.71c-1.31-1.12-2.24-2.68-2.6-4.37
			C216.6,97.65,218.36,99.82,218.65,102.09z"/>
	</g>
	<g>
		<g>
			<path class="st10" d="M219.21,113.04c-0.02,0-0.03,0-0.05,0l-4.31-0.48c-0.25-0.03-0.43-0.26-0.41-0.51
				c0.03-0.25,0.25-0.44,0.51-0.41l4.31,0.48c0.25,0.03,0.43,0.26,0.41,0.51C219.64,112.86,219.44,113.04,219.21,113.04z"/>
		</g>
		<g>
			<path class="st10" d="M222.05,118.26c-2.12,0-3.84-1.72-3.84-3.84c0-2.12,1.72-3.84,3.84-3.84c2.12,0,3.84,1.72,3.84,3.84
				C225.89,116.54,224.17,118.26,222.05,118.26z M222.05,111.5c-1.61,0-2.92,1.31-2.92,2.92c0,1.61,1.31,2.92,2.92,2.92
				c1.61,0,2.92-1.31,2.92-2.92C224.97,112.81,223.66,111.5,222.05,111.5z"/>
		</g>
		<g>
			<path class="st10" d="M229.05,120.52c-2.12,0-3.84-1.72-3.84-3.84s1.72-3.84,3.84-3.84s3.84,1.72,3.84,3.84
				S231.17,120.52,229.05,120.52z M229.05,113.75c-1.61,0-2.92,1.31-2.92,2.92c0,1.61,1.31,2.92,2.92,2.92
				c1.61,0,2.92-1.31,2.92-2.92C231.98,115.06,230.67,113.75,229.05,113.75z"/>
		</g>
	</g>
	<g>
		<path class="st5" d="M196.68,128.89l9.46-13.38c0.24-0.34,0.39-0.72,0.46-1.12c0.24-1.46,0.84-5.05,1-5.5
			c0.2-0.56,4.79-3.65,5.57-3.23c0.78,0.42,1.3,1.72,1.3,1.72s0.44-0.55,0.97-0.49c0.53,0.06,0.49,1.21,0.27,2.45
			c-0.17,0.97-0.39,2.64-0.45,4.17c-0.03,0.96-1.05,2.19-1.8,2.97c-0.56,0.58-1.01,1.24-1.35,1.97l-2.03,4.46L196.68,128.89z"/>
	</g>
	<g>
		<path class="st0" d="M201.33,118.89l8.75,4.02l-17.06,36.7c-1.51,3.3-5.37,4.79-8.7,3.36l0,0c-3.69-1.58-5.16-6.03-3.14-9.5
			L201.33,118.89z"/>
	</g>
	<g>
		<path class="st11" d="M222.51,114.78c0,0.7-0.57,1.27-1.27,1.27c-0.7,0-1.27-0.57-1.27-1.27c0-0.7,0.57-1.27,1.27-1.27
			C221.94,113.51,222.51,114.08,222.51,114.78z"/>
	</g>
	<g>
		<path class="st11" d="M229.05,117.09c0,0.7-0.57,1.27-1.27,1.27c-0.7,0-1.27-0.57-1.27-1.27c0-0.7,0.57-1.27,1.27-1.27
			C228.49,115.82,229.05,116.39,229.05,117.09z"/>
	</g>
	<g>
		<path class="st11" d="M224.36,122.31c-0.11,0-0.21-0.06-0.25-0.17c-0.01,0-0.09-0.01-0.18,0.02c-0.04,0.01-0.08,0.02-0.11,0.04
			c-0.17,0.06-0.38,0.13-0.61,0.07c-0.21-0.06-0.48-0.23-0.61-0.77l-0.02-0.07c-0.04-0.19-0.08-0.36-0.18-0.44
			c-0.11-0.09-0.32-0.07-0.54-0.04c-0.31,0.03-0.69,0.07-0.97-0.21c-0.24-0.24-0.25-0.56-0.26-0.83c-0.01-0.19-0.01-0.36-0.09-0.45
			c-0.09-0.11-0.32-0.1-0.46-0.01c-0.2,0.12-0.36,0.36-0.49,0.57c-0.08,0.13-0.25,0.17-0.38,0.08c-0.13-0.08-0.17-0.25-0.08-0.38
			c0.16-0.25,0.36-0.56,0.68-0.75c0.35-0.2,0.87-0.22,1.17,0.14c0.2,0.24,0.21,0.53,0.21,0.79c0.01,0.2,0.01,0.37,0.1,0.45
			c0.09,0.09,0.26,0.08,0.53,0.05c0.29-0.03,0.65-0.07,0.93,0.15c0.26,0.2,0.33,0.5,0.38,0.75l0.01,0.06
			c0.05,0.21,0.13,0.35,0.21,0.37c0.07,0.02,0.17-0.02,0.28-0.06c0.05-0.02,0.09-0.03,0.14-0.05c0.31-0.09,0.71-0.04,0.85,0.3
			c0.06,0.14-0.01,0.3-0.15,0.36C224.43,122.3,224.4,122.31,224.36,122.31z"/>
	</g>
	<g>
		<path class="st11" d="M220.24,113.08c-0.13,0-0.25-0.1-0.27-0.23c-0.02-0.15,0.08-0.29,0.23-0.31l3.13-0.47
			c0.15-0.02,0.29,0.08,0.31,0.23c0.02,0.15-0.08,0.29-0.23,0.31l-3.13,0.47C220.27,113.08,220.25,113.08,220.24,113.08z"/>
	</g>
	<g>
		<path class="st11" d="M230.66,117.58c-0.08,0-0.16-0.04-0.22-0.11c-0.76-1-1.33-2.16-1.65-3.37c-0.04-0.15,0.05-0.3,0.2-0.34
			c0.15-0.04,0.3,0.05,0.34,0.2c0.3,1.14,0.84,2.24,1.56,3.18c0.09,0.12,0.07,0.29-0.05,0.39
			C230.78,117.56,230.72,117.58,230.66,117.58z"/>
	</g>
	<g>
		<path class="st15" d="M206.27,131.13"/>
	</g>
	<g>
		<path class="st16" d="M186.96,163.79c-0.27,0-0.55-0.02-0.82-0.05c-0.15-0.02-0.26-0.15-0.24-0.31c0.02-0.15,0.15-0.26,0.31-0.24
			c2.76,0.32,5.41-1.16,6.57-3.7l13.24-28.48c0.06-0.14,0.23-0.2,0.37-0.13c0.14,0.06,0.2,0.23,0.13,0.37l-13.24,28.48
			C192.13,162.23,189.66,163.79,186.96,163.79z"/>
	</g>
	<g>
		<path class="st16" d="M221.86,151c-0.02,0-0.04,0-0.07-0.01c-0.15-0.04-0.24-0.18-0.2-0.33l3.01-12.4
			c0.04-0.15,0.18-0.24,0.33-0.2c0.15,0.04,0.24,0.18,0.2,0.33l-3.01,12.4C222.09,150.91,221.98,151,221.86,151z"/>
	</g>
	<g>
		<path class="st16" d="M216,138.21c-1.23,0-2.48-0.4-3.46-1.13c-1.56-1.16-2.61-2.83-3.02-4.83c-0.03-0.15,0.07-0.3,0.21-0.33
			c0.15-0.03,0.29,0.06,0.33,0.21c0.39,1.89,1.34,3.4,2.81,4.5c1.13,0.84,2.63,1.2,4.02,0.95c1.39-0.25,2.67-1.1,3.44-2.29
			c0.08-0.13,0.25-0.16,0.38-0.08c0.13,0.08,0.16,0.25,0.08,0.38c-0.85,1.31-2.27,2.25-3.81,2.53
			C216.66,138.18,216.33,138.21,216,138.21z"/>
	</g>
	<g>
		<g>
			<path class="st10" d="M216.99,118.87c-0.4,0.32-0.98,0.25-1.3-0.15s-0.25-0.98,0.15-1.3s2.01-0.42,2.01-0.42
				S217.39,118.55,216.99,118.87z"/>
		</g>
	</g>
	<g>
		<g>
			<path class="st10" d="M230.13,122.77c-0.02,0.51-0.45,0.91-0.96,0.9c-0.51-0.02-0.91-0.45-0.9-0.96c0.02-0.51,0.99-1.8,0.99-1.8
				S230.15,122.26,230.13,122.77z"/>
		</g>
	</g>
</g>
<g>
	<g>
		<path class="st7" d="M58.88,191.11l-7.75,2.72c-3.33-4.67-8.79-7.71-14.97-7.71c-10.15,0-18.38,8.23-18.38,18.38
			c0,10.15,8.23,18.38,18.38,18.38c10.15,0,18.38-8.23,18.38-18.38c0-2.65-0.57-5.18-1.58-7.45L58.88,191.11z"/>
	</g>
	<g>
		<path class="st10" d="M36.16,207.91c9.96,0,13.7-5.19,13.7-5.19c0,6.35-5.63,13.27-13.7,13.27c-8.08,0-13.7-6.92-13.7-13.27
			C22.46,202.72,26.2,207.91,36.16,207.91z M26.38,196.95c-0.02,1.78,0.69,3.57,1.94,4.84c1.25,1.28,3.01,2.03,4.79,2.06
			C32.39,200.4,29.87,197.47,26.38,196.95z M39.2,203.85c1.78-0.02,3.55-0.78,4.79-2.06c1.25-1.28,1.96-3.06,1.94-4.84
			C42.45,197.47,39.94,200.4,39.2,203.85z"/>
	</g>
</g>
<g>
	<g>
		
			<ellipse transform="matrix(0.9294 -0.369 0.369 0.9294 -44.4483 25.9181)" class="st10" cx="45.54" cy="129.18" rx="27.75" ry="27.75"/>
	</g>
	<g>
		<path class="st0" d="M35.02,128.78c0-5.81,4.71-10.52,10.52-10.52s10.52,4.71,10.52,10.52c0,4.49-0.71,7.48-4.68,8.6v2.59
			c0,0.39-0.31,0.7-0.7,0.7H40.4c-0.39,0-0.7-0.31-0.7-0.7v-2.59C35.74,136.26,35.02,133.27,35.02,128.78z M40.68,125.7
			c-2.06,0-3.73,1.57-3.73,3.51c0,1.94,1.67,3.51,3.73,3.51c2.06,0,3.73-1.57,3.73-3.51C44.41,127.27,42.74,125.7,40.68,125.7z
			 M46.67,129.21c0,1.94,1.67,3.51,3.73,3.51c2.06,0,3.73-1.57,3.73-3.51c0-1.94-1.67-3.51-3.73-3.51
			C48.34,125.7,46.67,127.27,46.67,129.21z M45.54,133.37c0,0-3.17,2.37,0,2.37C48.71,135.74,45.54,133.37,45.54,133.37z
			 M38.38,119.59l-2.37-2.37c0.86-0.86,0.86-2.26,0-3.12c-0.86-0.86-2.26-0.86-3.12,0c-0.74,0.74-0.84,1.88-0.3,2.74
			c-0.85-0.54-1.99-0.44-2.74,0.3c-0.86,0.86-0.86,2.26,0,3.12c0.86,0.86,2.26,0.86,3.12,0l2.35,2.35
			C36.34,121.6,37.36,120.59,38.38,119.59z M55.76,122.61l2.35-2.35c0.86,0.86,2.26,0.86,3.12,0c0.86-0.86,0.86-2.26,0-3.12
			c-0.74-0.74-1.89-0.84-2.74-0.3c0.54-0.85,0.44-1.99-0.3-2.74c-0.86-0.86-2.26-0.86-3.12,0c-0.86,0.86-0.86,2.26,0,3.12
			l-2.37,2.37C53.73,120.59,54.74,121.6,55.76,122.61z M52.7,138.76l2.37,2.37c-0.86,0.86-0.86,2.26,0,3.12
			c0.86,0.86,2.26,0.86,3.12,0c0.74-0.74,0.84-1.88,0.3-2.74c0.85,0.54,1.99,0.44,2.74-0.3c0.86-0.86,0.86-2.26,0-3.12
			c-0.86-0.86-2.26-0.86-3.12,0l-2.35-2.35C54.74,136.75,53.73,137.76,52.7,138.76z M35.32,135.74l-2.35,2.35
			c-0.86-0.86-2.26-0.86-3.12,0c-0.86,0.86-0.86,2.26,0,3.12c0.74,0.74,1.89,0.84,2.74,0.3c-0.54,0.85-0.44,1.99,0.3,2.74
			c0.86,0.86,2.26,0.86,3.12,0c0.86-0.86,0.86-2.26,0-3.12l2.37-2.37C37.36,137.76,36.34,136.75,35.32,135.74z"/>
	</g>
</g>
<g>
	<g>
		<path class="st3" d="M39.04,156.15c2.09,0.5,4.26,0.77,6.5,0.77c7.78,0,14.82-3.21,19.85-8.37c-2.81-1.68-6.1-2.64-9.61-2.64
			C48.48,145.91,42.16,150.07,39.04,156.15z"/>
	</g>
	<g>
		<circle class="st17" cx="57.69" cy="164.34" r="18.8"/>
	</g>
	<g>
		<path class="st10" d="M50.18,171.49c0-1.42,1.17-2.59,2.59-2.59c1.42,0,2.59,1.17,2.59,2.59c0,1.42-1.17,2.59-2.59,2.59
			C51.36,174.09,50.18,172.91,50.18,171.49z M50.32,160.05v-5.46h4.92v5.46l-0.82,6.83h-3.28L50.32,160.05z M60.02,171.49
			c0-1.42,1.17-2.59,2.59-2.59s2.59,1.17,2.59,2.59c0,1.42-1.17,2.59-2.59,2.59S60.02,172.91,60.02,171.49z M60.15,160.05v-5.46
			h4.92v5.46l-0.82,6.83h-3.28L60.15,160.05z"/>
	</g>
</g>
<g>
	<path class="st6" d="M148.04,145.55c-2.35,0-4.95-0.76-5.76-1.49c-1.06-0.96-0.13-4.18,0.17-5.15c0.08-0.24,0.33-0.37,0.58-0.3
		c0.24,0.08,0.37,0.34,0.3,0.58c-0.55,1.71-0.85,3.8-0.43,4.18c0.79,0.72,4.45,1.66,6.84,1.07c0.25-0.06,0.5,0.09,0.56,0.34
		c0.06,0.25-0.09,0.5-0.34,0.56C149.37,145.49,148.71,145.55,148.04,145.55z"/>
</g>
<g>
	<path class="st6" d="M147.14,135.88c-0.13,0-0.23-0.01-0.29-0.02c-0.66-0.12-2.25-2.52-4.73-7.12c-0.12-0.22-0.04-0.5,0.19-0.62
		c0.22-0.12,0.5-0.04,0.62,0.19c1.62,3,3.58,6.27,4.13,6.65c0.65,0.05,4.83-0.43,8.53-0.93c0.25-0.03,0.48,0.14,0.52,0.39
		c0.03,0.25-0.14,0.48-0.39,0.52C154.48,135.12,148.68,135.88,147.14,135.88z M147.08,134.98L147.08,134.98L147.08,134.98z"/>
</g>
<g>
	<path class="st6" d="M146.6,142.15c-0.6,0-1.06-0.04-1.3-0.14c-1.16-0.51-4.25-4.09-4.49-5.74c-0.23-1.61,2.3-4.8,2.81-5.43
		c0.16-0.2,0.45-0.23,0.65-0.07c0.2,0.16,0.23,0.45,0.07,0.65c-1.08,1.33-2.75,3.78-2.61,4.71c0.19,1.3,3.04,4.64,3.95,5.03
		c0.57,0.25,4.41-0.11,7.8-0.6c0.25-0.04,0.48,0.14,0.52,0.39c0.04,0.25-0.14,0.48-0.39,0.52
		C152.66,141.61,148.77,142.15,146.6,142.15z"/>
</g>
<g>
	<path class="st6" d="M149.84,128.15c-0.13,0-0.25-0.05-0.34-0.15l-4.16-4.58c-0.17-0.19-0.16-0.48,0.03-0.65
		c0.19-0.17,0.48-0.16,0.65,0.03l4.01,4.41l2.32-0.22c0.25-0.02,0.48,0.16,0.5,0.41c0.02,0.25-0.16,0.48-0.41,0.5l-2.55,0.24
		C149.87,128.15,149.86,128.15,149.84,128.15z"/>
</g>
<g>
	<path class="st2" d="M239.22,65.91h-28.88c-1.52,0-2.76,1.23-2.76,2.76v16.57c0,1.52,1.23,2.76,2.76,2.76h12.16l2.38,2.38
		l2.38-2.38h11.96c1.52,0,2.76-1.23,2.76-2.76V68.67C241.98,67.15,240.74,65.91,239.22,65.91z"/>
</g>
<g>
	<polygon class="st0" points="220.07,77.75 222.02,75.8 220.22,74 222.02,72.2 220.07,70.25 218.27,72.05 216.47,70.25 214.52,72.2 
		216.32,74 214.52,75.8 216.47,77.75 218.27,75.95 	"/>
</g>
<g>
	<polygon class="st0" points="235.04,72.2 233.09,70.25 231.29,72.05 229.49,70.25 227.54,72.2 229.34,74 227.54,75.8 229.49,77.75 
		231.29,75.95 233.09,77.75 235.04,75.8 233.24,74 	"/>
</g>
<g>
	<path class="st0" d="M224.78,78.69c-2.85,0-5.45,1.57-6.78,4.11l2.44,1.28c0.85-1.62,2.51-2.63,4.34-2.63
		c1.82,0,3.49,1.01,4.33,2.63l2.44-1.28C230.23,80.27,227.64,78.69,224.78,78.69z"/>
</g>
<g>
	<g>
		<g>
			<path class="st10" d="M276.01,135.57h-24.84c-3.92,0-7.09-3.17-7.09-7.09v-3.2c0-3.92,3.17-7.09,7.09-7.09h24.84
				c3.92,0,7.09,3.17,7.09,7.09v3.2C283.1,132.4,279.92,135.57,276.01,135.57z"/>
		</g>
		<g>
			<g>
				<path class="st1" d="M254.65,124.77c0,1.71-1.39,3.1-3.1,3.1c-1.71,0-3.1-1.39-3.1-3.1c0-1.71,1.39-3.1,3.1-3.1
					C253.26,121.67,254.65,123.06,254.65,124.77z"/>
			</g>
			<g>
				<path class="st2" d="M266.34,123.69h-8.5c-0.56,0-1.01-0.45-1.01-1.01l0,0c0-0.56,0.45-1.01,1.01-1.01h8.5
					c0.56,0,1.01,0.45,1.01,1.01l0,0C267.34,123.24,266.89,123.69,266.34,123.69z"/>
			</g>
			<g>
				<path class="st2" d="M277.72,127.88h-19.88c-0.56,0-1.01-0.45-1.01-1.01l0,0c0-0.56,0.45-1.01,1.01-1.01h19.88
					c0.56,0,1.01,0.45,1.01,1.01l0,0C278.72,127.43,278.27,127.88,277.72,127.88z"/>
			</g>
			<g>
				<path class="st2" d="M277.72,132.08h-19.88c-0.56,0-1.01-0.45-1.01-1.01l0,0c0-0.56,0.45-1.01,1.01-1.01h19.88
					c0.56,0,1.01,0.45,1.01,1.01l0,0C278.72,131.63,278.27,132.08,277.72,132.08z"/>
			</g>
		</g>
	</g>
</g>
<g>
	<polygon class="st2" points="185.23,90.57 158.18,95.86 165.68,101.92 149.39,108.59 178.76,104.39 171.35,96.97 	"/>
</g>
<g>
	<polygon class="st2" points="190.02,127.77 175.24,126.09 178.11,130.43 168.64,131.21 184.44,133.83 181.83,128.8 	"/>
</g>
<g>
	<polygon class="st2" points="173.96,155.45 155.26,150.15 158.05,156.35 145.68,155.36 165.49,162.07 163.19,155.05 	"/>
</g>
<g>
	<g>
		<polygon class="st3" points="145.58,210.51 130.02,165.81 129.71,166 122.98,161.77 117.76,167.85 110.09,166 107.22,173.55 
			89.48,169.78 100.41,183.02 94.85,188.71 100.41,194.4 99.47,202.41 107.22,203.87 110.09,211.42 117.76,209.56 122.98,215.65 
			129.71,211.41 136.45,215.65 141.67,209.56 		"/>
	</g>
	<g>
		<polygon class="st18" points="164.58,187.88 159.02,193.4 159.96,201.17 152.21,202.58 149.34,209.9 141.67,208.1 136.45,214 
			129.71,209.9 122.98,214 117.76,208.1 110.09,209.9 107.22,202.58 99.47,201.16 100.41,193.4 94.85,187.88 100.41,182.37 
			89.01,169.24 107.22,173.19 110.09,165.87 117.76,167.67 122.98,161.77 129.71,165.87 136.45,161.77 141.67,167.67 149.34,165.87 
			152.21,173.19 159.96,174.6 159.02,182.37 		"/>
	</g>
	<g>
		<path class="st10" d="M114.21,180.58l-0.23,1.32h1.74l-0.28,1.81h-1.76l-0.41,2.47h-1.87l0.41-2.47h-1.51l-0.41,2.47h-1.87
			l0.41-2.47h-1.74l0.3-1.81h1.74l0.23-1.32h-1.76l0.3-1.81h1.76l0.41-2.47h1.87l-0.41,2.47h1.51l0.41-2.47h1.87l-0.41,2.47h1.73
			l-0.3,1.81H114.21z M112.34,180.58h-1.51l-0.23,1.32h1.51L112.34,180.58z M122.2,187.19v1.45h-1.15v-1.43
			c-1.86-0.13-3.24-1.09-3.83-2.66l2.27-1.32c0.35,0.79,0.82,1.25,1.56,1.38v-2.27c-0.07-0.03-0.15-0.05-0.21-0.08
			c-1.43-0.58-3.14-1.38-3.14-3.58c0-2.14,1.61-3.24,3.35-3.4v-1.43h1.15v1.46c1.41,0.18,2.6,0.94,3.24,2.38l-2.22,1.3
			c-0.21-0.58-0.54-0.9-1.02-1.07v2.22c1.43,0.61,3.37,1.15,3.37,3.55C125.57,185.74,124.16,186.96,122.2,187.19z M121.05,179.59
			v-1.73c-0.48,0.12-0.72,0.43-0.72,0.82C120.33,179,120.48,179.26,121.05,179.59z M122.94,183.72c0-0.41-0.25-0.66-0.74-0.9v1.76
			C122.76,184.42,122.94,184.06,122.94,183.72z M126.89,178.04c0-1.55,1.22-2.79,2.86-2.79c1.63,0,2.84,1.2,2.84,2.79
			c0,1.55-1.22,2.8-2.84,2.8C128.11,180.84,126.89,179.59,126.89,178.04z M135.69,176.96l1.09,0.63l-7.43,8.24l-1.08-0.64
			L135.69,176.96z M130.62,178.04c0-0.51-0.36-0.9-0.89-0.9c-0.51,0-0.87,0.39-0.87,0.9c0,0.51,0.36,0.9,0.87,0.9
			C130.26,178.95,130.62,178.52,130.62,178.04z M132.76,184.39c0-1.55,1.22-2.79,2.86-2.79c1.63,0,2.84,1.25,2.84,2.79
			s-1.22,2.79-2.84,2.79C133.98,187.19,132.76,185.94,132.76,184.39z M136.49,184.39c0-0.51-0.36-0.9-0.89-0.9
			c-0.51,0-0.87,0.39-0.87,0.9s0.36,0.9,0.87,0.9C136.13,185.3,136.49,184.87,136.49,184.39z M151.69,182.55
			c0,2.35-1.13,3.6-2.7,3.6c-1.17,0-1.92-0.51-2.25-1.28c-0.38,0.46-0.92,0.72-1.58,0.72c-1.38,0-2.33-1.15-2.33-2.71
			s0.95-2.71,2.33-2.71c0.56,0,1.05,0.2,1.41,0.54v-0.35h2.01v3.88c0,0.67,0.28,1.09,0.92,1.09c0.89,0,1.53-0.89,1.53-2.78
			c0-2.83-2.22-5.03-5.1-5.03c-2.99,0-5.33,2.33-5.33,5.36c0,3.09,2.37,5.36,5.62,5.36c1.02,0,1.86-0.13,2.61-0.39v0.63
			c-0.72,0.23-1.56,0.36-2.61,0.36c-3.58,0-6.28-2.5-6.28-5.95c0-3.29,2.56-5.95,5.98-5.95
			C149.6,176.93,151.69,179.84,151.69,182.55z M146.56,182.88c0-0.56-0.33-0.94-0.84-0.94c-0.53,0-0.85,0.38-0.85,0.94
			c0,0.54,0.33,0.94,0.85,0.94C146.23,183.82,146.56,183.42,146.56,182.88z M120.18,195.03l-0.23,1.32h1.74l-0.28,1.81h-1.76
			l-0.41,2.47h-1.87l0.41-2.47h-1.51l-0.41,2.47h-1.87l0.41-2.47h-1.74l0.3-1.81h1.74l0.23-1.32h-1.76l0.3-1.81h1.76l0.41-2.47h1.87
			l-0.41,2.47h1.51l0.41-2.47h1.87l-0.41,2.47h1.73l-0.3,1.81H120.18z M118.31,195.03h-1.51l-0.23,1.32h1.51L118.31,195.03z
			 M123.6,200.11c0-0.85,0.71-1.56,1.56-1.56c0.85,0,1.56,0.71,1.56,1.56c0,0.85-0.71,1.56-1.56,1.56
			C124.31,201.68,123.6,200.97,123.6,200.11z M123.68,193.23v-3.29h2.96v3.29l-0.49,4.11h-1.97L123.68,193.23z M128.53,200.11
			c0-0.85,0.71-1.56,1.56-1.56c0.85,0,1.56,0.71,1.56,1.56c0,0.85-0.71,1.56-1.56,1.56C129.24,201.68,128.53,200.97,128.53,200.11z
			 M128.62,193.23v-3.29h2.96v3.29l-0.49,4.11h-1.97L128.62,193.23z M138.48,192.9l-1.48-0.15l0.9,1.13l-1.2,0.76l-0.69-1.4
			l-0.69,1.4l-1.2-0.76l0.9-1.13l-1.48,0.15v-1.45l1.48,0.15l-0.9-1.13l1.2-0.76l0.69,1.4l0.69-1.4l1.2,0.76l-0.9,1.13l1.48-0.15
			V192.9z M145.39,192.9l-1.48-0.15l0.9,1.13l-1.2,0.76l-0.69-1.4l-0.69,1.4l-1.2-0.76l0.9-1.13l-1.48,0.15v-1.45l1.48,0.15
			l-0.9-1.13l1.2-0.76l0.69,1.4l0.69-1.4l1.2,0.76l-0.9,1.13l1.48-0.15V192.9z"/>
	</g>
</g>
<g>
	<g>
		<g>
			<circle class="st10" cx="140.29" cy="76.21" r="13.36"/>
		</g>
	</g>
	<g>
		<path class="st0" d="M135.84,79.23h-1.22c-0.71,0-1.29-0.58-1.29-1.29v-5.3c0-0.71,0.58-1.29,1.29-1.29h1.22
			c0.71,0,1.29,0.58,1.29,1.29v5.3C137.13,78.65,136.55,79.23,135.84,79.23z M147.25,76.07c0.01-0.62-0.49-1.13-1.11-1.13h0.01
			c0.53,0,1-0.37,1.09-0.89c0.11-0.68-0.41-1.27-1.06-1.27h-0.53c0.45,0,0.82-0.37,0.82-0.82c0-0.91-0.73-1.64-1.64-1.64h-2.97
			c-0.5,0-0.99,0.08-1.47,0.24l-2.11,0.71c-0.16,0.05-0.27,0.2-0.27,0.37v7.2c0,0.22,0.18,0.39,0.39,0.39l0,0
			c0.41,0,0.79,0.23,0.99,0.59l0.89,1.65l0.58,1.42c0.28,0.69,1.03,1.05,1.74,0.85l0,0c0.82-0.23,1.27-1.13,0.95-1.93l-0.81-2.07
			h3.34c0.65,0,1.18-0.53,1.18-1.18v-0.24c0-0.65-0.53-1.18-1.18-1.18h0.03C146.71,77.16,147.24,76.68,147.25,76.07z"/>
	</g>
</g>
<g>
	<path class="st2" d="M205.01,102.29c-0.24-2.05-2.09-3.53-4.14-3.29c-0.64,0.07-1.21,0.31-1.7,0.65l-0.48,3.95l1.38,0.4l-1.48,5.65
		l0.14-4.73l-2.65-0.94l1.01-3.3c-0.77-0.68-1.81-1.04-2.91-0.92c-2.05,0.24-3.53,2.09-3.29,4.14c0.1,0.88,0.37,3.21,5.79,5.89
		l2.17,1.07l1.87-1.54C205.38,105.5,205.11,103.17,205.01,102.29z"/>
</g>
<g>
	<g>
		<path class="st3" d="M75.12,216.72l22.05-1.93c1.73-0.15,2.67-1.77,2.08-3.61l-3.55-11.15c-0.59-1.85-2.47-3.22-4.21-3.07
			l-22.56,1.97L75.12,216.72z"/>
	</g>
	<g>
		<path class="st10" d="M100.23,210.19l-3.55-11.15c-0.59-1.85-2.47-3.22-4.21-3.07l-31.34,2.74c-1.73,0.15-2.66,1.77-2.08,3.62
			l3.55,11.15c0.59,1.85,2.47,3.22,4.21,3.06l31.34-2.74C99.89,213.66,100.82,212.04,100.23,210.19z"/>
	</g>
	<g>
		<path class="st1" d="M66.34,201.94c-1.65,0.14-2.53,1.69-1.97,3.44c0.56,1.76,2.35,3.06,4,2.92c1.65-0.14,2.53-1.68,1.97-3.44
			C69.77,203.1,67.98,201.79,66.34,201.94"/>
	</g>
	<g>
		<path class="st1" d="M80.59,200.69l-8.19,0.72c-0.53,0.05-0.82,0.55-0.64,1.12c0.18,0.57,0.76,1,1.3,0.95l8.19-0.72
			c0.54-0.05,0.83-0.55,0.64-1.12C81.71,201.07,81.13,200.64,80.59,200.69"/>
	</g>
	<g>
		<path class="st1" d="M92.94,204.04l-19.17,1.68c-0.53,0.05-0.82,0.55-0.64,1.12c0.18,0.57,0.76,0.99,1.3,0.95l19.17-1.68
			c0.54-0.05,0.82-0.55,0.64-1.12C94.05,204.42,93.47,203.99,92.94,204.04"/>
	</g>
	<g>
		<path class="st1" d="M94.31,208.35l-19.17,1.68c-0.53,0.05-0.82,0.54-0.64,1.12c0.18,0.57,0.76,0.99,1.3,0.95l19.17-1.68
			c0.54-0.05,0.82-0.55,0.64-1.12C95.42,208.72,94.85,208.3,94.31,208.35"/>
	</g>
</g>
<g>
	<path class="st2" d="M29.26,174.79c-0.08-1.24,0.88-2.33,2.12-2.41c1.24-0.08,2.33,0.88,2.41,2.12c0.08,1.24-0.88,2.33-2.12,2.41
		C30.43,176.99,29.34,176.03,29.26,174.79z M28.75,164.8l-0.3-4.76l4.29-0.27l0.3,4.76l-0.34,6l-2.86,0.18L28.75,164.8z
		 M21.88,179.91c-0.5-1.71,0.5-3.54,2.21-4.04c1.71-0.5,3.54,0.5,4.04,2.21c0.5,1.71-0.5,3.54-2.21,4.04S22.38,181.62,21.88,179.91z
		 M18.01,166.08l-1.93-6.57l5.92-1.74l1.93,6.57l1.42,8.51l-3.94,1.16L18.01,166.08z"/>
</g>
<g>
	<g>
		<path class="st19" d="M276.35,12.3c-16.45,16.86-32.91,33.7-49.37,50.56c-15.79,16.17-31.57,32.35-47.33,48.55
			c-16.02,16.47-32.03,32.95-48,49.47c-17.05,17.64-34.07,35.31-51.05,53.03c-19,19.82-37.95,39.68-56.86,59.58
			c-2.45,2.58-4.89,5.15-7.34,7.73c-1.39,1.47-1.46,3.84,0,5.3c1.41,1.41,3.9,1.47,5.3,0c19.18-20.21,38.41-40.39,57.69-60.52
			c17.16-17.92,34.35-35.79,51.58-53.63c16.05-16.62,32.13-33.2,48.24-49.76c15.74-16.19,31.51-32.36,47.29-48.52
			c16.34-16.74,32.69-33.47,49.03-50.21c2.04-2.09,4.08-4.18,6.12-6.27C285.02,14.15,279.73,8.84,276.35,12.3L276.35,12.3z"/>
	</g>
</g>
<g>
	<g>
		<path class="st19" d="M11.92,22.09c16.86,16.45,33.7,32.91,50.56,49.37c16.17,15.79,32.35,31.57,48.55,47.33
			c16.47,16.02,32.95,32.03,49.47,48c17.64,17.05,35.31,34.07,53.03,51.05c19.82,19,39.68,37.95,59.58,56.86
			c2.58,2.45,5.15,4.89,7.73,7.34c1.47,1.39,3.84,1.46,5.3,0c1.41-1.41,1.47-3.9,0-5.3c-20.21-19.18-40.39-38.41-60.52-57.69
			c-17.92-17.16-35.79-34.35-53.63-51.58c-16.62-16.05-33.2-32.13-49.76-48.24c-16.19-15.74-32.36-31.51-48.52-47.29
			C56.96,55.6,40.23,39.25,23.49,22.91c-2.09-2.04-4.18-4.08-6.27-6.12C13.76,13.41,8.45,18.71,11.92,22.09L11.92,22.09z"/>
	</g>
</g>
</svg>
