<?xml version="1.0" encoding="utf-8"?>
<!-- Generator: Adobe Illustrator 24.2.3, SVG Export Plug-In . SVG Version: 6.00 Build 0)  -->
<svg version="1.1" id="Layer_1" xmlns="http://www.w3.org/2000/svg" xmlns:xlink="http://www.w3.org/1999/xlink" x="0px" y="0px"
	 viewBox="0 0 360 360" style="enable-background:new 0 0 360 360;" xml:space="preserve">
<style type="text/css">
	.st0{fill:#FDDB00;}
	.st1{fill:#2E5C9A;}
	.st2{fill:#FFFFFF;}
	.st3{fill:#174897;}
	.st4{fill:#BDE0F7;}
	.st5{fill:#237FC3;}
	.st6{fill:#ECF2FA;}
	.st7{fill:#568ECB;}
	.st8{fill:#E4ECF8;}
	.st9{fill:#CEE4F6;}
	.st10{fill:#77B4E2;}
	.st11{opacity:0.5;fill:#010101;}
	.st12{fill:#6CB2E2;}
	.st13{fill:#4294D0;}
	.st14{fill:#101010;}
	.st15{fill:#2576B4;}
	.st16{fill:#4B9DD6;}
	.st17{fill:#1B5481;}
	.st18{fill:#E6E6E5;}
	.st19{fill:#989898;}
	.st20{fill:#818181;}
	.st21{fill:#676767;}
	.st22{fill:#F5AF1B;}
	.st23{fill:#CB852A;}
	.st24{fill:#7F401C;}
	.st25{fill:#E69624;}
	.st26{fill:#F7E4AD;}
	.st27{fill:#F8951D;}
	.st28{fill:#A75125;}
	.st29{fill:#3D312C;}
	.st30{fill:#F26642;}
	.st31{fill:#FDE5E8;}
	.st32{fill:#E1E1E1;}
	.st33{fill:#FAFDFF;}
	.st34{fill:#9D94C8;}
</style>
<path class="st0" d="M336.18,272.96c0,11.68-9.55,21.23-21.22,21.23H180.57c-0.46,0-0.91-0.02-1.36-0.05
	c-0.63,0.03-1.27,0.05-1.9,0.05H55.68c-10.37,0-19.8-4.25-26.64-11.08c-6.83-6.84-11.08-16.27-11.08-26.64
	c0-20.75,16.98-37.72,37.72-37.72h9.36c12.95-3.07,22.65-14.76,22.65-28.6v-0.01c0-16.17-13.23-29.4-29.4-29.4H39.19
	c-12.35,0-22.32-10.69-21.13-23.27c1-10.57,10.85-19.18,21.47-19.18h134.04c10.86,0,17.5,6.85,19.8,15.62
	c1.8,6.83,7.99,11.57,15.05,11.55c10.62-0.02,21.27-0.48,31.88,0.02c16.52,0.79,22.81,12.27,25.21,21.17
	c1.66,6.19,7.35,10.44,13.76,10.44h27.56c5.84,0,11.14,2.39,14.99,6.23c3.85,3.85,6.24,9.15,6.24,14.99
	c0,11.68-9.55,21.22-21.23,21.22h-42.13c-4.65,0-8.88,1.91-11.96,4.97c-3.07,3.07-4.97,7.3-4.97,11.96
	c0,9.31,7.62,16.93,16.93,16.93h58.47c2.55,1.08,4.85,2.65,6.78,4.58C333.79,261.82,336.18,267.12,336.18,272.96z"/>
<path class="st1" d="M3013.88,2180.12H400.01c-4.62,0-8.37-3.75-8.37-8.37s3.75-8.37,8.37-8.37h2613.87c4.62,0,8.37,3.75,8.37,8.37
	S3018.5,2180.12,3013.88,2180.12z"/>
<g>
	<path class="st2" d="M2089.84,982.77v-70.55c0-32.04,25.96-58.01,57.99-58.01h617.47c32.04,0,58.01,25.97,58.01,58.01v1247.03
		H1226.1V982.77H2089.84z"/>
	<path class="st3" d="M2084.71,982.77v-70.55c0-32.04,25.96-58.01,57.99-58.01h617.47c32.04,0,58.01,25.97,58.01,58.01v1247.03
		H1220.97V982.77H2084.71z"/>
	<polygon class="st4" points="2764.67,1031.51 2764.67,2159.25 1285.09,2159.25 1285.09,1025.97 	"/>
	<polygon class="st5" points="2683.44,1031.51 2683.44,2159.25 1203.86,2159.25 1203.86,1025.97 	"/>
	<path class="st2" d="M1144.21,982.78h1461.72c30,0,52.1,20.3,56.41,48.38v1128.1H1067.02l0-1099.48
		C1066.66,1019.26,1103.22,982.78,1144.21,982.78z"/>
	<g>
		<g>
			
				<rect x="1681.29" y="753.49" transform="matrix(-1 -2.800579e-03 2.800579e-03 -1 4213.8789 2162.1389)" class="st6" width="854.32" height="649.26"/>
			
				<rect x="1703.59" y="774.68" transform="matrix(-1 -2.800559e-03 2.800559e-03 -1 4214.7935 2152.1304)" class="st7" width="810.62" height="596.88"/>
			<polygon class="st8" points="2445.05,1324.58 1924.12,1323.13 2208.95,1049.87 			"/>
			<polygon class="st8" points="2208.18,1323.92 1770.48,1322.7 2007.99,1096.86 			"/>
			
				<ellipse transform="matrix(0.7071 -0.7071 0.7071 0.7071 -100.0606 1736.6146)" class="st8" cx="2046.25" cy="989.09" rx="60.33" ry="60.33"/>
		</g>
	</g>
	<g>
		<g>
			
				<rect x="1567.69" y="636.27" transform="matrix(-1 -3.204691e-03 3.204691e-03 -1 3924.2549 1967.611)" class="st6" width="792.03" height="688.78"/>
			
				<rect x="1590.64" y="658.75" transform="matrix(-1 -3.223749e-03 3.223749e-03 -1 3925.1799 1957.031)" class="st7" width="747.05" height="633.2"/>
		</g>
		<g>
			<rect x="1967.81" y="747.37" class="st9" width="297.52" height="26.14"/>
			
				<rect x="1660.02" y="817.96" transform="matrix(-1 -1.224647e-16 1.224647e-16 -1 3925.3518 1662.05)" class="st9" width="605.32" height="26.14"/>
			
				<rect x="1660.02" y="889.82" transform="matrix(-1 -1.224647e-16 1.224647e-16 -1 3925.3518 1805.7871)" class="st9" width="605.32" height="26.14"/>
		</g>
	</g>
	<path class="st10" d="M1137.18,982.78h1461.72c30,0,52.1,20.3,56.41,48.38V2163.3H1059.98l0-1103.52
		C1059.62,1019.26,1096.19,982.78,1137.18,982.78z"/>
	
		<rect x="2662.34" y="2152.77" transform="matrix(-1 -1.224647e-16 1.224647e-16 -1 5485.645 4312.0176)" class="st2" width="160.97" height="6.49"/>
	<polygon class="st11" points="2823.31,1459.93 2764.67,1498.18 2687.2,1498.18 2662.34,1517.31 2662.34,1499.14 1067.02,1499.14 
		1067.02,1459.93 	"/>
	<g>
		<g>
			
				<rect x="1034.52" y="1272.75" transform="matrix(-1 -1.224647e-16 1.224647e-16 -1 3880.4846 2750.1807)" class="st12" width="1811.45" height="204.67"/>
			
				<rect x="1034.52" y="1272.75" transform="matrix(-1 -1.224647e-16 1.224647e-16 -1 3717.4158 2750.1807)" class="st13" width="1648.38" height="204.67"/>
		</g>
	</g>
	<g>
		<polygon class="st14" points="2227.2,1272.75 2227.2,1477.36 2083.97,1477.36 2184.39,1272.75 		"/>
		<g>
			<g>
				<path class="st15" d="M2177.7,1374.86c0,28.31,4.95,53.94,13.26,72.38c8.11,18.88,19.4,30.11,31.86,30.11h38.03v-204.53h-38.03
					C2197.88,1272.82,2177.7,1318.67,2177.7,1374.86z M2213.72,1408.58c-7.12-2.25-12.66-16.18-12.66-33.71
					c0-17.08,5.54-31.01,12.66-33.26c7.13,2.25,12.67,16.19,12.67,33.26C2226.39,1392.4,2220.85,1406.33,2213.72,1408.58z"/>
				<g>
					<path class="st16" d="M2197.07,1374.86c0,28.31,5.18,53.94,13.87,72.38c8.49,18.88,20.29,30.11,33.34,30.11h16.57v-204.53
						h-16.57C2218.2,1272.82,2197.07,1318.67,2197.07,1374.86z M2215.3,1374.86c0-17.08,10.77-31.01,18.22-33.26
						c7.46,2.25,13.26,16.19,13.26,33.26c0,17.54-5.8,31.46-13.26,33.71C2226.07,1406.33,2215.3,1392.4,2215.3,1374.86z"/>
				</g>
			</g>
			<g>
				<path class="st15" d="M2195.92,1374.86c0,28.31,4.95,53.94,13.26,72.38c8.11,18.88,19.4,30.11,31.86,30.11h38.03v-204.53h-38.03
					C2216.11,1272.82,2195.92,1318.67,2195.92,1374.86z M2231.94,1408.58c-7.12-2.25-12.67-16.18-12.67-33.71
					c0-17.08,5.54-31.01,12.67-33.26c7.13,2.25,12.67,16.19,12.67,33.26C2244.61,1392.4,2239.07,1406.33,2231.94,1408.58z"/>
				<g>
					<path class="st12" d="M2215.29,1374.86c0,28.31,5.18,53.94,13.87,72.38c8.49,18.88,20.29,30.11,33.34,30.11h16.57v-204.53
						h-16.57C2236.42,1272.82,2215.29,1318.67,2215.29,1374.86z M2233.52,1374.86c0-17.08,5.8-31.01,13.25-33.26
						c7.46,2.25,13.26,16.19,13.26,33.26c0,17.54-5.8,31.46-13.26,33.71C2239.32,1406.33,2233.52,1392.4,2233.52,1374.86z"/>
				</g>
				<path class="st17" d="M2240.86,1478.69c-1.62,0-10.89-0.43-20.69-9.84c-11.12-10.68-24.38-34.8-24.38-89.08
					c0-51.71,12.09-78.32,22.23-91.55c11.17-14.56,22.32-16.63,22.79-16.71c0.73-0.12,1.41,0.36,1.54,1.09
					c0.12,0.72-0.36,1.41-1.08,1.54l0,0c-0.11,0.02-10.77,2.06-21.31,15.94c-9.81,12.92-21.51,38.96-21.51,89.69
					c0,53.21,12.76,76.72,23.46,87.06c9.73,9.4,19,9.21,19.07,9.19c0.75-0.03,1.35,0.55,1.38,1.28c0.03,0.73-0.54,1.35-1.27,1.38
					C2241.07,1478.69,2240.99,1478.69,2240.86,1478.69z"/>
			</g>
		</g>
		<g>
			<path class="st18" d="M2246.76,1405.84c1.8,0.45,3.14,0.9,4.94,1.35c-0.45,0.45-0.45,0.45,0,0.45
				c72.38,21.58,125.87,88.1,125.87,167.67v170.86h57.54v-170.86c0-110.58-77.77-203.18-181.61-226.56c-2.25-0.9-4.5-1.35-6.74-1.79
				C2230.12,1343.36,2228.77,1403.15,2246.76,1405.84z"/>
			<path class="st18" d="M2178.65,1343.9v57.22c-74.17,9.55-134.05,64.57-149.98,136.48c-0.46,1.79-0.9,3.14-0.9,4.49
				c-0.9,4.05-1.35,7.64-1.8,11.69c-0.9,7.19-1.35,14.39-1.35,21.58v170.86h-57.09v-170.86
				C1967.53,1454.51,2060.4,1355.5,2178.65,1343.9z"/>
			<path class="st19" d="M2245.43,1388.96c134.92,23.66,152.29,170.55,152.29,170.55v186.7h-20.24v-170.86
				c0-81.24-55.71-149.15-130.68-169.39c-5.73-1.86-9.3-18.64-9.3-18.64S2241.04,1388.12,2245.43,1388.96z"/>
			<path class="st20" d="M2178.65,1388.96v12.16c-74.17,9.55-134.05,64.57-149.98,136.48
				C2031.9,1495.63,2066.7,1403.91,2178.65,1388.96z"/>
			<path class="st21" d="M2246.76,1405.84c1.8,0.45,3.14,0.9,4.94,1.35c-1.35-3.6-8.66-11.77-9.56-28.84
				c-0.9-17.54,5.05-29.39,11.36-29.6c-2.25-0.9-4.5-1.35-6.74-1.79C2230.12,1343.36,2228.77,1403.15,2246.76,1405.84z"/>
		</g>
		<g>
			<rect x="1917.63" y="1699.59" class="st22" width="566.84" height="463.36"/>
			<g>
				<path class="st23" d="M2209.58,1814.05c-1.8-0.45-3.6-0.45-5.4-0.45c-38.65,0-70.13,31.31-70.13,70.34
					c0,28.58,17.09,53.09,41.36,64.43v119.34c0,15.89,13.03,29.05,28.76,29.05c1.35,0,3.15,0,4.5-0.45h1.34
					c13.04-2.73,22.94-14.52,22.94-28.59v-119.34c24.26-10.89,41.35-35.85,41.35-64.43
					C2274.31,1846.72,2245.99,1816.77,2209.58,1814.05z"/>
				<path class="st24" d="M2209.58,1814.05c-36.41,2.26-65.19,32.67-65.19,69.88c0,28.58,17.09,53.09,41.36,64.43v119.34
					c0,14.07,9.89,25.87,22.93,28.59h1.34c13.04-2.73,22.94-14.52,22.94-28.59v-119.34c24.26-10.89,41.35-35.85,41.35-64.43
					C2274.31,1846.72,2245.99,1816.77,2209.58,1814.05z"/>
			</g>
			<path class="st25" d="M2097.5,2162.94h-179.87v-463.36h49.9C1967.53,1699.59,1954.28,2041.47,2097.5,2162.94z"/>
			<path class="st26" d="M2362.77,2162.94c42.96-91.92,34.95-339.05,34.95-463.36h57.09v463.36H2362.77z"/>
		</g>
	</g>
</g>
<path class="st27" d="M331.52,302.68H28.58c-4.67,0-8.49-3.82-8.49-8.49l0,0c0-4.67,3.82-8.49,8.49-8.49h302.94
	c4.67,0,8.49,3.82,8.49,8.49l0,0C340,298.86,336.19,302.68,331.52,302.68z"/>
<path class="st28" d="M182.69,157.09l5.9-14.37l-2.57-11.02c-0.76,1.14-1.86,2.05-2.98,2.8l0.97,5.32l-1.6,6.63l-4.94-10.91
	l-0.46-14.64l-6.08,1.1l-3.57,14.5l6.95,22.56L182.69,157.09z"/>
<g>
	<g>
		<path class="st29" d="M164.43,166.91c-0.09-0.02-0.18-0.03-0.27-0.05c0.02-0.18,0.04-0.36,0.06-0.54c0.09,0,0.18,0.01,0.26,0.01
			c2.82,0,5.1-2.28,5.1-5.1c0-0.8-0.18-1.56-0.52-2.23c0.27-0.7,0.4-1.47,0.33-2.27c-0.23-2.81-2.7-4.9-5.5-4.66
			c-0.09,0.01-0.18,0.02-0.27,0.04c-0.03-0.18-0.07-0.35-0.1-0.53c0.09-0.02,0.17-0.04,0.26-0.07c2.69-0.85,4.18-3.71,3.33-6.4
			c-0.85-2.68-3.71-4.18-6.4-3.33c-0.09,0.03-0.17,0.06-0.25,0.09c-0.07-0.17-0.14-0.33-0.22-0.5c0.08-0.04,0.16-0.07,0.24-0.12
			c2.43-1.42,3.25-4.54,1.84-6.97c-1.42-2.44-4.54-3.26-6.98-1.84c-0.08,0.05-0.15,0.1-0.22,0.15c-0.11-0.14-0.21-0.29-0.32-0.43
			c0.07-0.06,0.14-0.11,0.21-0.17c2.06-1.92,2.18-5.14,0.26-7.2c-1.92-2.07-5.14-2.18-7.2-0.27c-0.07,0.06-0.13,0.13-0.19,0.19
			c-0.14-0.12-0.28-0.24-0.42-0.36c0.05-0.07,0.11-0.14,0.17-0.21c1.59-2.32,1.01-5.5-1.31-7.09c-2.32-1.59-5.5-1-7.09,1.32
			c-0.05,0.07-0.09,0.15-0.14,0.23c-0.16-0.09-0.32-0.17-0.49-0.26c0.04-0.08,0.09-0.16,0.12-0.25c1.04-2.61-0.23-5.58-2.84-6.62
			c-2.62-1.05-5.58,0.23-6.63,2.84c-0.03,0.08-0.06,0.17-0.09,0.26c-0.17-0.05-0.35-0.1-0.53-0.14c0.02-0.09,0.04-0.18,0.05-0.27
			c0.44-2.78-1.45-5.39-4.23-5.83c-2.79-0.44-5.39,1.45-5.83,4.24c-0.01,0.09-0.02,0.18-0.03,0.27c-0.18-0.01-0.36-0.02-0.54-0.02
			c0-0.09,0-0.18,0-0.27c-0.17-2.81-2.6-4.95-5.41-4.77c-2.81,0.18-4.95,2.6-4.77,5.41c0.01,0.09,0.02,0.18,0.03,0.27
			c-0.18,0.03-0.35,0.06-0.53,0.09c-0.02-0.09-0.04-0.18-0.06-0.26c-0.79-2.71-3.62-4.26-6.33-3.46c-2.7,0.79-4.25,3.62-3.46,6.32
			c0.03,0.09,0.06,0.17,0.09,0.26c-0.17,0.07-0.33,0.14-0.5,0.21c-0.04-0.08-0.07-0.16-0.12-0.24c-1.37-2.46-4.47-3.35-6.93-1.98
			c-2.46,1.37-3.35,4.47-1.98,6.94c0.04,0.08,0.1,0.15,0.15,0.23c-0.15,0.1-0.3,0.21-0.45,0.32c-0.06-0.07-0.11-0.14-0.17-0.21
			c-1.87-2.1-5.1-2.29-7.2-0.42c-2.1,1.87-2.29,5.1-0.42,7.2c0.06,0.07,0.13,0.13,0.19,0.19c-0.12,0.13-0.24,0.27-0.36,0.41
			c-0.07-0.06-0.14-0.12-0.21-0.17c-2.29-1.64-5.47-1.12-7.11,1.17c-1.65,2.29-1.12,5.47,1.17,7.11c0.07,0.05,0.15,0.1,0.23,0.15
			c-0.09,0.16-0.18,0.32-0.26,0.47c-0.08-0.04-0.16-0.08-0.25-0.12c-2.59-1.1-5.58,0.11-6.68,2.7c-1.1,2.59,0.11,5.59,2.71,6.69
			c0.08,0.04,0.17,0.06,0.25,0.09c-0.05,0.17-0.1,0.35-0.16,0.52c-0.09-0.02-0.17-0.05-0.26-0.06c-2.78-0.5-5.43,1.35-5.92,4.12
			c-0.5,2.77,1.34,5.42,4.11,5.92c0.09,0.02,0.18,0.02,0.27,0.04c-0.01,0.18-0.02,0.36-0.03,0.54c-0.09,0-0.18-0.01-0.27,0
			c-2.82,0.11-5,2.49-4.88,5.3c0.11,2.74,2.37,4.89,5.09,4.89c0.07,0,0.14,0,0.21-0.01c0.09,0,0.18-0.02,0.27-0.02
			c0.03,0.18,0.05,0.36,0.08,0.54c-0.09,0.02-0.18,0.03-0.27,0.06c-2.72,0.73-4.33,3.53-3.6,6.25c0.61,2.28,2.67,3.77,4.92,3.77
			c0.44,0,0.89-0.05,1.33-0.18c0.09-0.02,0.17-0.06,0.26-0.08c0.07,0.17,0.13,0.34,0.2,0.51c-0.08,0.04-0.17,0.07-0.25,0.12
			c-2.49,1.31-3.44,4.4-2.13,6.89c0.91,1.73,2.68,2.72,4.51,2.72c0.8,0,1.62-0.19,2.38-0.59c0.08-0.04,0.15-0.09,0.23-0.14
			c0.1,0.15,0.2,0.3,0.3,0.45c-0.07,0.05-0.14,0.1-0.21,0.16c-2.15,1.83-2.4,5.05-0.57,7.19c1.01,1.18,2.44,1.79,3.88,1.79
			c1.17,0,2.35-0.4,3.31-1.22c0.07-0.06,0.13-0.12,0.19-0.18c0.13,0.13,0.27,0.25,0.4,0.37c-0.06,0.07-0.12,0.14-0.17,0.21
			c-1.69,2.25-1.23,5.45,1.02,7.14c0.92,0.69,1.99,1.02,3.05,1.02c1.55,0,3.08-0.7,4.08-2.04c0.05-0.07,0.1-0.15,0.15-0.22
			c0.16,0.09,0.31,0.18,0.47,0.28c-0.04,0.08-0.09,0.16-0.12,0.24c-1.15,2.57-0.01,5.59,2.56,6.74c0.68,0.31,1.39,0.45,2.09,0.45
			c1.95,0,3.81-1.12,4.65-3.01c0.04-0.08,0.07-0.17,0.1-0.26c0.17,0.06,0.35,0.11,0.52,0.17c-0.02,0.09-0.05,0.17-0.07,0.26
			c-0.56,2.76,1.23,5.45,3.99,6.01c0.34,0.07,0.68,0.1,1.01,0.1c2.38,0,4.5-1.67,5-4.1c0.02-0.09,0.03-0.18,0.04-0.27
			c0.18,0.02,0.36,0.03,0.54,0.05c0,0.09-0.01,0.18-0.01,0.27c0.06,2.78,2.32,4.99,5.09,4.99c0.04,0,0.07,0,0.11,0
			c2.82-0.06,5.05-2.39,4.99-5.21c0-0.09-0.01-0.17-0.02-0.26c0.18-0.02,0.36-0.05,0.54-0.07c0.02,0.09,0.03,0.18,0.05,0.26
			c0.57,2.32,2.66,3.88,4.95,3.88c0.4,0,0.81-0.05,1.22-0.15c2.73-0.67,4.4-3.43,3.73-6.17c-0.02-0.09-0.05-0.17-0.08-0.26
			c0.17-0.06,0.34-0.12,0.51-0.19c0.04,0.08,0.07,0.17,0.11,0.25c0.9,1.78,2.69,2.81,4.56,2.81c0.77,0,1.55-0.17,2.28-0.54
			c2.52-1.26,3.54-4.33,2.28-6.84c-0.04-0.08-0.09-0.16-0.13-0.23c0.15-0.1,0.3-0.2,0.45-0.3c0.05,0.07,0.1,0.15,0.16,0.22
			c1.01,1.24,2.47,1.87,3.95,1.87c1.13,0,2.28-0.38,3.23-1.15c2.18-1.79,2.5-5,0.71-7.18c-0.06-0.07-0.12-0.13-0.18-0.2
			c0.13-0.13,0.25-0.26,0.38-0.39c0.07,0.06,0.13,0.12,0.21,0.18c0.93,0.73,2.04,1.08,3.14,1.08c1.51,0,3.01-0.67,4.01-1.95
			c1.74-2.22,1.35-5.42-0.86-7.16c-0.07-0.06-0.15-0.1-0.22-0.16c0.1-0.15,0.19-0.3,0.29-0.46c0.08,0.04,0.15,0.09,0.24,0.13
			c0.71,0.34,1.45,0.49,2.18,0.49c1.91,0,3.74-1.07,4.61-2.91c1.21-2.54,0.12-5.59-2.42-6.8c-0.08-0.04-0.17-0.07-0.25-0.11
			c0.06-0.17,0.12-0.34,0.18-0.51c0.09,0.02,0.17,0.05,0.26,0.07c0.38,0.09,0.75,0.12,1.12,0.12c2.33,0,4.43-1.61,4.97-3.98
			C168.91,170.26,167.18,167.53,164.43,166.91z"/>
		<g>
			<g>
				<g>
					<g>
						<path class="st28" d="M134.6,168.07c-0.27-0.79-0.99-1.42-1.91-0.96c-0.46,0.23-0.78,0.64-1.09,1.04
							c-0.62-2.67-0.48-5.45-0.32-8.16c0.15-2.57,0.13-5.32-1.61-7.47c-4.37-5.43-7.89,1.03-13.3,1.09
							c-5.41-0.06-8.92-6.52-13.3-1.09c-3.54,4.39-0.05,10.81-1.99,15.79c0.34-0.88-1.7-1.71-2.41-1.32
							c-1.36,0.73-0.79,4.54-0.55,5.72c0.17,0.84,0.43,1.75,1.02,2.42c0.13,0.15,1.96,1.31,1.96,1.05c0.1,3,0.69,7.04,2.57,9.5
							c1.77,2.32,4.06,3.23,5.3,5.87c2.8,5.98-2.53,13.47-9.68,15.58c2.79,1.63,13.5,4.41,16.97,4.35
							c3.27,0.28,14.65-0.9,13.37-4.82c-7.15-2.11-8.68-9.14-5.88-15.12c1.24-2.64,3.53-3.55,5.3-5.87c1.88-2.47,2.48-6.5,2.57-9.5
							c-0.01,0.26,1.85-0.94,1.99-1.09c0.55-0.64,0.8-1.51,0.98-2.3C134.92,171.32,135.1,169.52,134.6,168.07z"/>
						<path class="st28" d="M67.07,256.85c0.32-0.07,0.64-0.06,0.95,0h98.25v-9.12c0-6.3-1.41-12.3-3.92-17.66
							c-4.55-9.74-12.73-17.4-22.73-21.14c-3.23-1.22-6.67-2.02-10.22-2.34h-0.01c-1.18-0.11-2.37-0.16-3.58-0.16H106.7
							c-2.46,0-4.88,0.23-7.22,0.66c0,0-0.01,0-0.02,0c-2.2,0.41-4.33,1.01-6.39,1.77c-0.08,0.03-0.16,0.06-0.24,0.09
							c-13.1,4.93-23.09,16.61-25.83,30.86c-0.43,2.23-0.69,4.52-0.75,6.86v0.13c-0.01,0.31-0.01,0.62-0.01,0.92v9.12H67.07z"/>
						<path class="st30" d="M64.65,249.54l0.04,7.31h104.65c-0.01-5.16-0.02-8.91-0.02-8.91c0-5.9-1.31-11.54-3.66-16.62
							c-4.68-10.11-13.47-18.09-24.29-21.93c0,0.02-0.01,0.03-0.01,0.05c-0.02,0.13-0.05,0.27-0.08,0.4
							c-2.28,10.93-12.27,19.18-24.25,19.18c-11.85,0-21.74-8.07-24.16-18.84c-0.07-0.27-0.13-0.54-0.18-0.8
							c-0.08,0.03-0.17,0.07-0.25,0.09c-6.49,2.32-12.23,6.13-16.81,10.98c-5.49,5.88-9.27,13.29-10.52,21.49
							c-0.15,1.04-0.27,2.09-0.35,3.15c-0.1,0.94-0.12,1.9-0.12,2.86l0.01,1.46V249.54z"/>
					</g>
				</g>
				<path class="st2" d="M110.55,178.79c0.41,3.27,3.21,5.8,6.64,5.8c3.43,0,6.23-2.54,6.64-5.8H110.55z"/>
			</g>
			<path class="st28" d="M70.82,226.68l-27.67,42.65c0,0-6.25,9.48,1.78,16.67c8.03,7.19,0,0,0,0H108"/>
			<path class="st28" d="M162.86,226.68l27.67,42.65c0,0,6.25,9.48-1.78,16.67c-8.03,7.19,0,0,0,0h-63.06"/>
			<path class="st31" d="M149.37,293.19H84.42c-4.8,0-8.7-3.89-8.7-8.7v-40.11c0-4.8,3.89-8.7,8.7-8.7h64.95c4.8,0,8.7,3.89,8.7,8.7
				v40.11C158.07,289.29,154.18,293.19,149.37,293.19z"/>
			<circle class="st2" cx="117.19" cy="264.09" r="6.64"/>
		</g>
		<path class="st29" d="M99.46,166.4c3.27,1.96,8.09,0.4,9.61-3.09c3.04,3.22,9.1,2.65,11.49-1.08c1.68,2.96,6.01,3.09,9.14,1.76
			c6.87-2.91,10.83-11.03,9.6-18.39c-1.22-7.36-7.1-13.53-14.18-15.88c-7.08-2.35-15.08-1.1-21.57,2.59
			c-5.1,2.9-9.43,7.38-11.4,12.9c-1.97,5.52-1.31,12.09,2.35,16.68"/>
	</g>
	<circle class="st32" cx="101.13" cy="176.18" r="1.74"/>
	<circle class="st32" cx="131.85" cy="176.18" r="1.74"/>
</g>
<g>
	<g>
		<g>
			<g>
				<path class="st28" d="M174.59,154.98c-0.56,9.15-8.72,38.12-9.23,40.61c-4.28,20.9-3.15,33.63,7.55,38.13
					c3.82,1.61,5.92,1.28,8.24,1.61c-0.33-0.05-0.06-20.69-0.05-22.07l2.98-61.49l-2.12,1.23l0.09-6.69
					C179.81,149.46,177.49,152.51,174.59,154.98z"/>
				<path class="st28" d="M250.84,233.1c0,0-70.68,10-79.03-2.38l3.42-17.27c0,0,2.21-0.07,5.87-0.2
					c15.9-0.48,59.11-1.74,66.27-1.06L250.84,233.1z"/>
			</g>
			<path class="st29" d="M245.85,114.16c1.23,1.6,2.91,3.25,2.62,5.25c-0.13,0.87-0.63,1.64-1.19,2.32
				c-3.03,3.66-7.81,5.34-11.5,8.33c-3.69,2.99-6.13,8.88-2.88,12.35c0.96,1.03,2.31,1.69,3.09,2.86c1.14,1.72,0.71,4.09-0.35,5.87
				c-1.06,1.78-2.65,3.16-3.98,4.75c-6.54,7.86-5.42,20.35,1.05,28.26c6.47,7.91,17.12,11.56,27.34,11.43
				c10-0.12,20.34-3.86,26.55-11.7c6.2-7.84,7.1-20.09,0.56-27.65c-1.35-1.55-3.02-3-3.5-5c-0.87-3.67,2.58-6.8,3.97-10.31
				c1.66-4.21-0.08-9.48-3.91-11.88c-2.58-1.62-6.1-2.2-7.55-4.88c-1.95-3.59,1.27-7.69,2.2-11.68
				c2.37-10.19-10.06-21.49-19.88-19.8C248.52,94.4,237.93,103.84,245.85,114.16z"/>
			<g>
				<g>
					<g>
						<path class="st28" d="M242.41,167.92c0.27-0.79,0.99-1.42,1.91-0.96c0.46,0.23,0.78,0.64,1.09,1.04
							c0.62-2.67,0.48-5.45,0.32-8.16c-0.15-2.57-0.13-5.32,1.61-7.47c4.37-5.43,7.89,1.03,13.3,1.09c5.41-0.06,8.92-6.52,13.3-1.09
							c3.54,4.39,0.05,10.81,1.99,15.79c-0.34-0.88,1.7-1.71,2.41-1.32c1.36,0.73,0.79,4.54,0.55,5.72
							c-0.17,0.84-0.43,1.75-1.02,2.42c-0.13,0.15-1.96,1.31-1.96,1.05c-0.1,3-0.69,7.04-2.57,9.5c-1.77,2.32-4.06,3.23-5.3,5.87
							c-2.8,5.98,2.53,13.47,9.68,15.58c-2.79,1.63-13.5,4.41-16.97,4.35c-3.27,0.28-14.65-0.9-13.37-4.82
							c7.15-2.11,8.68-9.14,5.88-15.12c-1.24-2.64-3.53-3.55-5.3-5.87c-1.88-2.47-2.48-6.5-2.57-9.5c0.01,0.26-1.85-0.94-1.99-1.09
							c-0.55-0.64-0.8-1.51-0.98-2.3C242.09,171.18,241.92,169.38,242.41,167.92z"/>
						<path class="st28" d="M309.95,256.71c-0.31-0.07-0.63-0.06-0.94,0h-97.15v-9.12c0-6.3,1.4-12.3,3.88-17.66
							c4.5-9.74,12.59-17.4,22.48-21.14c3.2-1.22,6.59-2.02,10.1-2.34h0.01c1.17-0.11,2.34-0.16,3.54-0.16h18.9
							c2.43,0,4.83,0.23,7.14,0.66c0,0,0.01,0,0.02,0c2.17,0.41,4.28,1.01,6.32,1.77c0.08,0.03,0.16,0.06,0.24,0.09
							c12.96,4.93,22.83,16.61,25.54,30.86c0.42,2.23,0.68,4.52,0.74,6.86v0.13c0.01,0.31,0.01,0.62,0.01,0.92v9.12H309.95z"/>
						<path class="st33" d="M309.95,256.71c-0.31-0.07-0.63-0.06-0.94,0h-97.15v-9.12c0-6.3,1.4-12.3,3.88-17.66
							c4.5-9.74,12.59-17.4,22.48-21.14c3.2-1.22,6.59-2.02,10.1-2.34h0.01c1.17-0.11,2.34-0.16,3.54-0.16h18.9
							c2.43,0,4.83,0.23,7.14,0.66c0,0,0.01,0,0.02,0c2.17,0.41,4.28,1.01,6.32,1.77c0.08,0.03,0.16,0.06,0.24,0.09
							c12.96,4.93,22.83,16.61,25.54,30.86c0.42,2.23,0.68,4.52,0.74,6.86v0.13c0.01,0.31,0.01,0.62,0.01,0.92v9.12H309.95z"/>
						<path class="st34" d="M312.37,248.85l-0.04,37.36H211.86c0.01-5.24,0.02-38.98,0.02-38.98c0-5.99,1.26-11.71,3.52-16.87
							c4.49-10.26,12.93-18.36,23.32-22.25c0,0.02,0.01,0.04,0.01,0.05c0.02,0.13,0.05,0.27,0.08,0.4
							c2.19,11.1,11.78,19.46,23.28,19.46c11.38,0,20.87-8.19,23.19-19.12c0.07-0.27,0.13-0.54,0.17-0.82
							c0.08,0.04,0.16,0.07,0.24,0.09c6.23,2.35,11.74,6.22,16.14,11.14c5.27,5.96,8.9,13.49,10.1,21.82
							c0.15,1.05,0.26,2.12,0.33,3.19c0.09,0.96,0.11,1.93,0.11,2.9l-0.01,1.48V248.85z"/>
						<path class="st34" d="M238.22,208.79h-41.37c0,0,0.27,28.88,5.36,38.35h26.55L238.22,208.79z"/>
					</g>
				</g>
				<path class="st2" d="M267.54,178.65c-0.41,3.27-3.21,5.8-6.64,5.8c-3.43,0-6.23-2.54-6.64-5.8H267.54z"/>
			</g>
			<path class="st28" d="M317.54,244.03l16.32,25.16c0,0,6.25,9.48-1.78,16.67c-8.03,7.19,0,0,0,0h-63.06"/>
			<path class="st34" d="M301.29,256.71"/>
			<polygon class="st34" points="301.83,219.32 325.47,249.64 293.66,270.1 			"/>
			<path class="st31" d="M227.64,293.05h64.95c4.8,0,8.7-3.89,8.7-8.7v-40.11c0-4.8-3.89-8.7-8.7-8.7h-64.95
				c-4.8,0-8.7,3.89-8.7,8.7v40.11C218.95,289.15,222.84,293.05,227.64,293.05z"/>
			
				<ellipse transform="matrix(0.9732 -0.2298 0.2298 0.9732 -53.6912 66.7564)" class="st2" cx="259.83" cy="263.94" rx="6.64" ry="6.64"/>
		</g>
		<path class="st29" d="M247.6,156.35c1.42,3.86,4.65,7.01,8.55,8.33c3.9,1.32,8.38,0.78,11.85-1.43c0.61,2.86,4.68,3.82,7.11,2.18
			c2.42-1.64,3.31-4.83,3.23-7.75c-0.14-5.28-2.91-10.33-6.99-13.68c-4.09-3.35-9.39-5.04-14.67-5.19
			c-3.99-0.11-8.2,0.74-11.16,3.42c-1.24,1.13-2.21,2.53-3.01,4.01c-2.18,4.05-4.73,13.25-1.65,17.5
			C245.1,169.61,249.07,160.36,247.6,156.35z"/>
	</g>
	<g>
		<path class="st32" d="M278.45,204.91h-18.29c0.27,2.19,0.95,4.85,1.97,6.81c1.57,2.99,4.89,4.98,8.27,4.95
			c3.38-0.03,6.66-2.09,8.17-5.11C279.71,209.27,279.91,206.99,278.45,204.91z"/>
		<path class="st32" d="M242.68,204.91h18.29c-0.27,2.19-0.95,4.85-1.97,6.81c-1.57,2.99-4.89,4.98-8.27,4.95
			c-3.38-0.03-6.66-2.09-8.17-5.11C241.42,209.27,241.21,206.99,242.68,204.91z"/>
	</g>
</g>
</svg>
